<svg version="1.1" xmlns="http://www.w3.org/2000/svg" x="0" y="0" width="100" height="100" viewBox="0 0 100 100" xml:space="preserve"><g fill="#13b5b2"><path d="M19.39 31.34h4.06c4.51 7.98 9.06 16.04 13.61 24.11 3.08 0 6.09.34 8.99-.08 4.11-.6 6.71-3.25 7.37-7.31.75-4.6-.7-8.58-4.21-11.73-1.19-1.07-2.51-1.68-4.18-1.6-1.9.09-3.82.01-5.73.03-.52 0-1.06-.12-1.59.21-.31.51-.18 1.1-.18 1.67-.03 4.19-.05 8.38-.06 12.57 0 1.11-.08 2.22-.3 3.5-.79-.97-1.21-2.02-1.81-2.95-.95-1.47-1.31-3.04-1.28-4.82.08-3.82-.01-7.64-.02-11.45 0-.57-.12-1.16.15-1.74.47-.32 1.02-.18 1.53-.18 3.45-.01 6.9.08 10.34-.04 2.22-.07 4.04.7 5.69 2.04 6.13 5 7.29 13.92 2.61 20.29-1.87 2.54-4.31 4.36-7.42 5.17-.51.13-1.04.23-1.56.23-3.34.02-6.68 0-10.02-.01-.21 0-.42-.06-.8-.12-5.01-9.16-10.06-18.4-15.19-27.79z"/><path d="M52.12 31.54h4.91c.81 0 1.39.45 1.94.96 1.36 1.25 2.26 2.82 2.93 4.49 2.65 6.6 2.58 13.01-1.47 19.1-.76 1.14-1.62 2.23-2.81 3.12h-5.56c5-3.32 7.58-7.92 7.76-13.75.2-6.03-3.01-10.27-7.7-13.92zM81.46 49.47c1.9 3.22 3.75 6.36 5.67 9.63-1.53.22-2.88.12-4.4.07-1.13-1.89-2.29-3.83-3.5-5.86H68.16c-1.22 1.76-1.88 3.92-3.13 5.8H60.8c1.73-3.3 3.38-6.45 5.05-9.65 5.2.01 10.33.01 15.61.01zM12.7 53.31c-.98 1.93-1.94 3.82-2.9 5.72-1.35.29-2.65.12-3.97.11.17-1.29 2.87-6.72 4.77-9.67h15.48c1.85 3.14 3.73 6.31 5.71 9.66h-4.4c-1.31-1.77-2.16-3.92-3.6-5.82H12.7zM94.18 59.22h-4.19c-5.04-9.21-10.08-18.44-15.19-27.8 1.41-.24 2.65-.14 4.01-.08 5.07 9.22 10.16 18.44 15.37 27.88zM17.81 33.92c2.44 4.52 4.7 8.71 7.03 13.03-1.37.42-2.59.18-3.87.11-.93-1.67-1.85-3.33-2.84-5.12-1.38 1.59-1.75 3.53-2.8 5.13-1.16.13-2.29.17-3.58-.09 2-4.31 3.96-8.52 6.06-13.06zM73.16 33.88c2.46 4.59 4.73 8.81 7.05 13.13-1.35.35-2.56.06-3.78.14-1.23-1.63-1.8-3.6-3.09-5.37-.92 1.84-1.77 3.52-2.63 5.22-1.15.32-2.24.09-3.62.14 1.93-4.49 4.03-8.66 6.07-13.26zM6.66 61.94h.9l1.87 4.85h-.91l-.46-1.28H6.13l-.46 1.28H4.8l1.86-4.85zm-.3 2.92h1.48l-.73-2.09h-.02l-.73 2.09zM9.78 63.28h.73v.49h.02c.06-.09.12-.16.19-.24.07-.07.14-.13.23-.18s.18-.09.29-.12c.11-.03.23-.04.37-.04.21 0 .41.05.59.14.18.1.31.24.39.44.13-.18.28-.32.46-.43s.39-.16.65-.16c.37 0 .66.09.87.27.21.18.31.48.31.91v2.42h-.78v-2.05c0-.14 0-.27-.01-.38a.947.947 0 0 0-.08-.3.436.436 0 0 0-.19-.19.703.703 0 0 0-.35-.07c-.26 0-.45.08-.57.24-.12.16-.18.39-.18.69v2.06h-.77v-2.26c0-.24-.04-.43-.13-.55-.09-.12-.25-.19-.49-.19a.69.69 0 0 0-.53.24c-.07.08-.13.17-.17.28-.04.11-.06.24-.06.39v2.09h-.79v-3.5zM16.3 65.24c0 .14.02.27.06.39.04.13.1.24.17.33s.17.17.29.23.26.09.42.09c.23 0 .41-.05.55-.15.14-.1.24-.24.31-.44h.73c-.04.19-.11.36-.21.51-.1.15-.22.27-.36.38-.14.1-.3.18-.47.23-.17.05-.36.08-.55.08-.28 0-.52-.05-.73-.14a1.515 1.515 0 0 1-.87-.96c-.07-.23-.11-.48-.11-.75 0-.25.04-.49.12-.71.08-.22.19-.42.34-.59a1.61 1.61 0 0 1 1.24-.55c.28 0 .52.06.74.17.22.11.4.27.55.46.15.19.25.41.32.66.07.25.08.5.05.76H16.3zm1.81-.51c-.01-.12-.04-.24-.08-.35a.923.923 0 0 0-.18-.3c-.07-.08-.17-.15-.27-.2s-.23-.08-.36-.08c-.14 0-.26.02-.37.07-.11.05-.21.11-.28.2-.08.08-.14.18-.19.3-.05.11-.07.24-.08.37h1.81zM19.47 63.28h.73v.68h.01c.02-.1.07-.19.13-.28.07-.09.14-.17.24-.25s.2-.14.31-.18c.11-.05.23-.07.35-.07.09 0 .15 0 .19.01.03 0 .07.01.1.01v.75a.88.88 0 0 0-.17-.02c-.06-.01-.11-.01-.17-.01a.91.91 0 0 0-.37.08c-.12.05-.22.13-.3.23-.09.1-.15.23-.2.38-.05.15-.07.32-.07.52v1.67h-.77v-3.52zM21.88 61.94h.77v.73h-.77v-.73zm0 1.34h.77v3.51h-.77v-3.51zM25.87 64.46a.715.715 0 0 0-.26-.49.85.85 0 0 0-.54-.17c-.1 0-.21.02-.32.05-.11.03-.22.1-.31.19-.1.09-.17.22-.24.39-.06.16-.09.38-.09.65 0 .15.02.29.05.43.03.15.09.27.16.39.07.11.17.21.29.27.12.07.26.11.43.11.23 0 .41-.07.56-.21.15-.14.24-.34.27-.59h.77c-.07.46-.25.81-.52 1.05s-.64.36-1.09.36c-.28 0-.52-.05-.73-.14s-.39-.22-.53-.38c-.15-.16-.25-.35-.33-.57-.07-.22-.11-.46-.11-.72 0-.26.04-.51.11-.74.07-.23.18-.43.33-.6.14-.17.32-.3.54-.4.22-.1.47-.15.76-.15.2 0 .4.03.58.08.18.05.35.13.49.23s.26.24.35.39c.09.16.14.35.16.56h-.78zM30.22 66.01c0 .1.01.16.04.2.03.04.07.06.15.06h.08c.03 0 .07 0 .11-.01v.54c-.03.01-.06.02-.1.03l-.13.03c-.05.01-.09.02-.14.02-.05 0-.08.01-.12.01-.16 0-.29-.03-.39-.1-.1-.06-.17-.17-.2-.33-.15.15-.34.26-.57.33s-.44.1-.65.1c-.16 0-.31-.02-.46-.06a1.13 1.13 0 0 1-.38-.19.819.819 0 0 1-.26-.32.933.933 0 0 1-.1-.45c0-.22.04-.39.12-.53.08-.14.18-.24.31-.32.13-.08.27-.13.43-.17s.32-.06.49-.08c.14-.03.27-.05.4-.06.13-.01.24-.03.34-.06.1-.03.17-.07.23-.13s.08-.14.08-.26c0-.1-.02-.18-.07-.24a.655.655 0 0 0-.18-.15.878.878 0 0 0-.23-.07c-.09-.01-.17-.02-.24-.02-.22 0-.4.05-.54.14-.14.09-.22.23-.24.42h-.77c.01-.23.07-.41.16-.56.1-.15.22-.27.36-.36.15-.09.31-.15.5-.19a2.937 2.937 0 0 1 1.08 0c.17.04.32.1.45.18.13.08.24.19.32.32.08.13.12.29.12.47v1.81zm-.78-.98c-.12.08-.26.12-.43.14-.17.02-.34.04-.52.07-.08.01-.16.03-.24.06-.08.02-.14.06-.2.1a.39.39 0 0 0-.14.17c-.03.07-.05.15-.05.26 0 .09.03.16.07.22.05.06.11.11.18.14.07.03.15.06.23.07s.16.02.23.02c.09 0 .18-.01.28-.03s.19-.06.28-.12a.63.63 0 0 0 .22-.21c.06-.08.09-.19.09-.31v-.58zM31.05 63.28h.73v.52l.01.01c.12-.19.27-.35.46-.46.19-.11.4-.17.63-.17.39 0 .69.1.91.3s.33.5.33.9v2.41h-.77v-2.21c-.01-.28-.07-.48-.18-.6-.11-.12-.28-.19-.51-.19-.13 0-.25.02-.35.07-.1.05-.19.11-.26.2-.07.08-.13.18-.17.3-.04.11-.06.23-.06.36v2.07h-.77v-3.51zM36.95 61.94h2.01c.37 0 .69.06.96.19s.49.3.67.52c.17.22.3.48.38.77.08.29.13.61.13.94s-.04.65-.13.94c-.08.3-.21.55-.38.77-.17.22-.39.39-.67.52-.27.13-.59.19-.96.19h-2.01v-4.84zm.85 4.16h.84c.33 0 .6-.04.81-.13.21-.09.38-.21.5-.37s.2-.34.24-.55c.04-.21.06-.44.06-.68 0-.24-.02-.47-.06-.68-.04-.21-.12-.39-.24-.55-.12-.16-.28-.28-.5-.37-.21-.09-.48-.13-.81-.13h-.84v3.46zM42.35 65.24c0 .14.02.27.06.39.04.13.1.24.17.33.08.1.17.17.29.23s.26.09.42.09c.23 0 .41-.05.55-.15.14-.1.24-.24.31-.44h.73c-.04.19-.11.36-.21.51-.1.15-.22.27-.36.38-.14.1-.3.18-.47.23-.17.05-.36.08-.55.08-.28 0-.52-.05-.73-.14a1.515 1.515 0 0 1-.87-.96c-.07-.23-.11-.48-.11-.75 0-.25.04-.49.12-.71.08-.22.19-.42.34-.59a1.61 1.61 0 0 1 1.24-.55c.28 0 .52.06.74.17.22.11.4.27.55.46.15.19.25.41.32.66.07.25.08.5.05.76h-2.59zm1.81-.51c-.01-.12-.04-.24-.08-.35a.923.923 0 0 0-.18-.3.863.863 0 0 0-.63-.28c-.14 0-.26.02-.37.07-.11.05-.21.11-.28.2-.08.08-.14.18-.19.3-.05.11-.07.24-.08.37h1.81zM45.52 63.28h.73v.52l.01.01c.12-.19.27-.35.46-.46.19-.11.4-.17.63-.17.39 0 .69.1.91.3s.33.5.33.9v2.41h-.77v-2.21c-.01-.28-.07-.48-.18-.6-.11-.12-.28-.19-.51-.19-.13 0-.25.02-.35.07-.1.05-.19.11-.26.2-.07.08-.13.18-.17.3-.04.11-.06.23-.06.36v2.07h-.77v-3.51zM49.07 63.28h.58v-1.05h.77v1.05h.7v.58h-.7v1.87c0 .08 0 .15.01.21s.02.11.05.15c.03.04.06.07.11.09.05.02.12.03.2.03h.16c.05 0 .11-.01.16-.02v.6l-.25.03c-.08.01-.17.01-.25.01-.2 0-.37-.02-.49-.06a.743.743 0 0 1-.29-.17.573.573 0 0 1-.14-.28 1.51 1.51 0 0 1-.04-.39v-2.07h-.58v-.58zM54.63 66.01c0 .1.01.16.04.2.03.04.07.06.15.06h.08c.03 0 .07 0 .11-.01v.54c-.03.01-.06.02-.1.03l-.13.03c-.05.01-.09.02-.14.02-.05 0-.08.01-.12.01-.16 0-.29-.03-.39-.1-.1-.06-.17-.17-.2-.33-.15.15-.34.26-.57.33-.22.07-.44.1-.65.1-.16 0-.31-.02-.46-.06a1.13 1.13 0 0 1-.38-.19.819.819 0 0 1-.26-.32.933.933 0 0 1-.1-.45c0-.22.04-.39.12-.53.08-.14.18-.24.31-.32.13-.08.27-.13.43-.17s.32-.06.49-.08c.14-.03.27-.05.4-.06.13-.01.24-.03.34-.06.1-.03.17-.07.23-.13s.08-.14.08-.26c0-.1-.02-.18-.07-.24a.655.655 0 0 0-.18-.15.878.878 0 0 0-.23-.07c-.09-.01-.17-.02-.24-.02-.22 0-.4.05-.54.14-.14.09-.22.23-.24.42h-.77c.01-.23.07-.41.16-.56.1-.15.22-.27.36-.36.15-.09.31-.15.5-.19a2.937 2.937 0 0 1 1.08 0c.17.04.32.1.45.18.13.08.24.19.32.32.08.13.12.29.12.47v1.81zm-.78-.98c-.12.08-.26.12-.43.14-.17.02-.34.04-.52.07-.08.01-.16.03-.24.06-.08.02-.14.06-.2.1a.39.39 0 0 0-.14.17c-.03.07-.05.15-.05.26 0 .09.03.16.07.22.05.06.11.11.18.14.07.03.15.06.23.07s.16.02.23.02c.09 0 .18-.01.28-.03.1-.02.19-.06.28-.12a.63.63 0 0 0 .22-.21c.06-.08.09-.19.09-.31v-.58zM55.48 61.94h.77v4.85h-.77v-4.85zM60.39 61.94h.9l1.87 4.85h-.91l-.46-1.28h-1.94l-.46 1.28h-.88l1.88-4.85zm-.3 2.92h1.48l-.73-2.09h-.02l-.73 2.09zM64.1 65.66c.02.23.11.39.26.48.15.09.33.14.54.14.07 0 .16-.01.25-.02s.18-.03.26-.06c.08-.03.15-.08.2-.14.05-.06.08-.14.07-.24 0-.1-.04-.18-.11-.24a.809.809 0 0 0-.26-.15c-.11-.04-.23-.07-.36-.1l-.41-.09c-.15-.03-.28-.07-.42-.11-.13-.05-.25-.11-.36-.18a.942.942 0 0 1-.26-.3.986.986 0 0 1-.09-.44c0-.19.05-.35.14-.48.09-.13.21-.23.35-.31.14-.08.3-.13.48-.17.17-.03.34-.05.5-.05.18 0 .35.02.52.06.17.04.31.1.45.19.13.09.24.2.33.34.09.14.14.31.17.5h-.81c-.04-.19-.12-.31-.25-.37s-.29-.1-.46-.1c-.05 0-.12 0-.19.01-.08.01-.15.03-.21.05s-.12.06-.17.11c-.05.05-.07.11-.07.19 0 .1.03.17.1.23s.15.11.26.15c.11.04.23.07.36.1l.42.09c.14.03.28.07.41.12.14.05.26.11.36.18a.843.843 0 0 1 .36.73c0 .21-.05.38-.14.53-.1.15-.22.26-.37.35-.15.09-.32.16-.51.2-.19.04-.37.06-.55.06-.22 0-.43-.02-.62-.07s-.35-.13-.49-.23-.25-.23-.33-.38c-.08-.15-.12-.33-.13-.54h.78zM67.63 65.66c.02.23.11.39.26.48.15.09.33.14.54.14.07 0 .16-.01.25-.02s.18-.03.26-.06c.08-.03.15-.08.2-.14.05-.06.08-.14.07-.24 0-.1-.04-.18-.11-.24a.809.809 0 0 0-.26-.15c-.11-.04-.23-.07-.36-.1l-.41-.09c-.15-.03-.28-.07-.42-.11-.13-.05-.25-.11-.36-.18a.942.942 0 0 1-.26-.3.986.986 0 0 1-.09-.44c0-.19.05-.35.14-.48.09-.13.21-.23.35-.31.14-.08.3-.13.48-.17.17-.03.34-.05.5-.05.18 0 .35.02.52.06s.31.1.45.19c.13.09.24.2.33.34.09.14.14.31.17.5h-.81c-.04-.19-.12-.31-.25-.37s-.29-.1-.46-.1c-.05 0-.12 0-.19.01-.08.01-.15.03-.21.05s-.12.06-.17.11c-.05.05-.07.11-.07.19 0 .1.03.17.1.23s.15.11.26.15c.11.04.23.07.36.1l.42.09c.14.03.28.07.41.12.14.05.26.11.36.18a.843.843 0 0 1 .36.73c0 .21-.05.38-.14.53-.1.15-.22.26-.37.35-.15.09-.32.16-.51.2-.19.04-.37.06-.55.06-.22 0-.43-.02-.62-.07s-.35-.13-.49-.23-.25-.23-.33-.38c-.08-.15-.12-.33-.13-.54h.78zM72.18 66.89c-.28 0-.53-.05-.75-.14-.22-.09-.41-.22-.56-.38-.15-.16-.27-.36-.35-.58-.08-.23-.12-.48-.12-.75s.04-.51.12-.74c.08-.23.19-.42.35-.58.15-.16.34-.29.56-.38.22-.09.47-.14.75-.14s.53.05.75.14c.22.09.41.22.56.38.15.16.27.36.35.58.08.23.12.47.12.74s-.04.52-.12.75c-.08.23-.19.42-.35.58-.15.16-.34.29-.56.38-.22.09-.47.14-.75.14zm0-.61c.17 0 .32-.04.45-.11s.23-.17.31-.29c.08-.12.14-.25.18-.4a1.74 1.74 0 0 0 0-.9c-.04-.15-.1-.28-.18-.4a1.04 1.04 0 0 0-.31-.28.936.936 0 0 0-.45-.11c-.17 0-.32.04-.45.11s-.23.17-.31.28c-.08.12-.14.25-.18.4a1.74 1.74 0 0 0 0 .9c.04.15.1.28.18.4.08.12.19.21.31.29.13.07.28.11.45.11zM76.97 64.46a.715.715 0 0 0-.26-.49.85.85 0 0 0-.54-.17c-.1 0-.21.02-.32.05-.11.03-.22.1-.31.19s-.17.22-.24.39c-.06.16-.09.38-.09.65 0 .15.02.29.05.43.03.15.09.27.16.39.07.11.17.21.29.27.12.07.26.11.43.11.23 0 .41-.07.56-.21.15-.14.24-.34.27-.59h.77c-.07.46-.25.81-.52 1.05s-.64.36-1.09.36c-.28 0-.52-.05-.73-.14s-.39-.22-.53-.38c-.15-.16-.25-.35-.33-.57-.07-.22-.11-.46-.11-.72 0-.26.04-.51.11-.74.07-.23.18-.43.33-.6.14-.17.32-.3.54-.4.22-.1.47-.15.76-.15.2 0 .4.03.58.08.18.05.35.13.49.23s.26.24.35.39c.09.16.14.35.16.56h-.78zM78.39 61.94h.77v.73h-.77v-.73zm0 1.34h.77v3.51h-.77v-3.51zM82.95 66.01c0 .1.01.16.04.2.03.04.07.06.15.06h.08c.03 0 .07 0 .11-.01v.54c-.03.01-.06.02-.1.03l-.13.03c-.05.01-.09.02-.14.02-.05 0-.08.01-.12.01-.16 0-.29-.03-.39-.1-.1-.06-.17-.17-.2-.33-.15.15-.34.26-.57.33-.22.07-.44.1-.65.1-.16 0-.31-.02-.46-.06a1.13 1.13 0 0 1-.38-.19.819.819 0 0 1-.26-.32.933.933 0 0 1-.1-.45c0-.22.04-.39.12-.53.08-.14.18-.24.31-.32.13-.08.27-.13.43-.17s.32-.06.49-.08c.14-.03.27-.05.4-.06.13-.01.24-.03.34-.06.1-.03.17-.07.23-.13s.08-.14.08-.26c0-.1-.02-.18-.07-.24a.655.655 0 0 0-.18-.15.878.878 0 0 0-.23-.07c-.09-.01-.17-.02-.24-.02-.22 0-.4.05-.54.14-.14.09-.22.23-.24.42h-.77c.01-.23.07-.41.16-.56.1-.15.22-.27.36-.36.15-.09.31-.15.5-.19a2.937 2.937 0 0 1 1.08 0c.17.04.32.1.45.18.13.08.24.19.32.32.08.13.12.29.12.47v1.81zm-.77-.98c-.12.08-.26.12-.43.14-.17.02-.34.04-.52.07-.08.01-.16.03-.24.06-.08.02-.14.06-.2.1a.39.39 0 0 0-.14.17c-.03.07-.05.15-.05.26 0 .09.03.16.07.22.05.06.11.11.18.14.07.03.15.06.23.07.08.01.16.02.23.02.09 0 .18-.01.28-.03.1-.02.19-.06.28-.12a.63.63 0 0 0 .22-.21c.06-.08.09-.19.09-.31v-.58zM83.43 63.28h.58v-1.05h.77v1.05h.7v.58h-.7v1.87c0 .08 0 .15.01.21s.02.11.05.15c.03.04.06.07.11.09.05.02.12.03.2.03h.16c.05 0 .11-.01.16-.02v.6l-.25.03c-.08.01-.17.01-.25.01-.2 0-.37-.02-.49-.06a.743.743 0 0 1-.29-.17.573.573 0 0 1-.14-.28 1.51 1.51 0 0 1-.04-.39v-2.07h-.58v-.58zM86.07 61.94h.77v.73h-.77v-.73zm0 1.34h.77v3.51h-.77v-3.51zM89.3 66.89c-.28 0-.53-.05-.75-.14s-.41-.22-.56-.38c-.15-.16-.27-.36-.35-.58-.08-.23-.12-.48-.12-.75s.04-.51.12-.74c.08-.23.19-.42.35-.58.15-.16.34-.29.56-.38s.47-.14.75-.14.53.05.75.14c.22.09.41.22.56.38.15.16.27.36.35.58.08.23.12.47.12.74s-.04.52-.12.75c-.08.23-.19.42-.35.58-.15.16-.34.29-.56.38-.22.09-.47.14-.75.14zm0-.61c.17 0 .32-.04.45-.11s.23-.17.31-.29c.08-.12.14-.25.18-.4a1.74 1.74 0 0 0 0-.9c-.04-.15-.1-.28-.18-.4a1.04 1.04 0 0 0-.31-.28.936.936 0 0 0-.45-.11c-.17 0-.32.04-.45.11s-.23.17-.31.28c-.08.12-.14.25-.18.4a1.74 1.74 0 0 0 0 .9c.04.15.1.28.18.4.08.12.19.21.31.29.12.07.27.11.45.11zM91.71 63.28h.73v.52l.01.01c.12-.19.27-.35.46-.46.19-.11.4-.17.63-.17.39 0 .69.1.91.3.22.2.33.5.33.9v2.41h-.77v-2.21c-.01-.28-.07-.48-.18-.6-.11-.12-.28-.19-.51-.19-.13 0-.25.02-.35.07-.1.05-.19.11-.26.2-.07.08-.13.18-.17.3-.04.11-.06.23-.06.36v2.07h-.77v-3.51z"/></g></svg>