<svg version="1.1" xmlns="http://www.w3.org/2000/svg" x="0" y="0" width="100" height="100" viewBox="0 0 100 100" xml:space="preserve"><g fill="#13b5b2"><path d="M37.78 50.29V35.15c.3-.35.69-.26 1.04-.25 1.98.07 3.95-.13 5.93.28 2.87.59 4.96 2.07 5.6 4.96.55 2.5.67 5.04-.98 7.35-1 1.39-2.45 2.01-3.91 2.44-2.47.72-5.05.37-7.68.36zm3.12-2.98c3.43.53 4.21.07 5.75-2.13.82-1.18.85-4.11-.38-5.65-1.11-1.39-3.32-2.28-5.37-1.54v9.32zM60.6 35.4c.18.98-.02 1.77-.47 2.59-.57-.14-1.17-.3-1.76-.45-.95-.24-1.87-.22-2.7.36-.93.65-.95 1.86 0 2.49.51.34 1.12.56 1.69.8 1.22.49 2.32 1.1 3.32 2.01 1.17 1.08 1.12 4.32-.02 5.47-1.86 1.88-4.06 2.21-6.45 1.83-.72-.12-1.61.04-2.28-.75-.18-.43-.08-1.02-.06-1.58.05-.88.39-1.14 1.22-.83.95.36 1.91.53 2.91.46.26-.02.53-.02.77-.11.58-.24 1.21-.5 1.34-1.2.14-.74-.26-1.23-.86-1.69-.73-.56-1.59-.77-2.41-1.08-2.28-.87-3.47-2.64-3.31-4.73.07-1 .49-1.82 1.14-2.51 1.15-1.21 2.54-1.94 4.29-1.9 1.27.01 2.5.04 3.64.82zM21.83 49.78c.15.46.07.63-.13.8-2.02-.41-4.08-.38-6.06 0-.27-.22-.27-.42-.21-.64.32-.47.9-.11 1.45-.51.15-1.68-1.05-3.07-1.31-4.73h-5.12c-.59 1.53-1.63 2.93-1.72 4.6.43.56 1.01.22 1.29.43.31.24.31.47.21.65-.15.26-.42.25-.69.17a6.998 6.998 0 0 0-3.85.01c-.43.12-.71-.03-.7-.5.08-.12.13-.26.2-.27 1.32-.16 2.11-.88 2.67-2.1 1.8-3.99 3.73-7.93 5.37-11.99.11-.28.22-.58.49-.73.64.09.74.62.9 1.03.74 1.94 1.43 3.91 2.17 5.86.74 1.95 1.54 3.87 2.27 5.82.5 1.29 1.39 2.03 2.77 2.1zm-11-6.11c1.57.01 2.85.19 4.2-.13-.6-1.63-1.16-3.17-1.78-4.87-1.05 1.56-1.48 3.23-2.42 5zM34.77 64.04c-.62.16-1.08.16-1.73 0-.14-4.86-.04-9.76-.06-14.66-.02-4.86 0-9.73 0-14.54.62-.37 1.13-.25 1.62-.18.06.06.1.09.13.13.03.04.08.08.08.12.02 9.49.04 18.98.05 28.46 0 .2-.05.4-.09.67zM29.98 38.26c-.53.03-.64-.3-.78-.66-.64-1.61-2.2-2.32-4.31-1.3-.43.21-.65.61-.73 1.13-.2 1.36.31 2.34 1.43 3.05.88.56 1.8 1.06 2.65 1.65 1.02.72 1.93 1.52 2.26 2.87.33 1.35-.11 2.46-.73 3.53-.82 1.42-3.15 2.24-4.78 1.9-1.19-.25-2.3-.61-3.26-1.5-.17-.89-.06-1.83-.06-2.77 0-.33.04-.33.8-.46.22.62.16 1.31.49 1.93.89 1.69 3.2 2.35 4.83 1.35 1.64-1 1.46-3.11-.14-4.29-.96-.71-2.06-1.22-3.06-1.89-1.09-.73-2.07-1.53-2.34-2.97-.31-1.63.45-2.8 1.45-3.89.27-.3.68-.47 1.03-.7 1.55-.99 3.09-.48 4.62.07.44.16.58.62.69 1 .17.65.23 1.32-.06 1.95zM58.97 57.76c-.93.17-1.77.69-2.48-.12-1.04.6-1.6.55-2.3-.1-.5-.48-.61-1.15-.3-1.86.3-.69.93-1.02 1.79-.95.48.04.64.28.47.73-.36.4-.94.03-1.3.37-.12 1.23-.12 1.23 1.18 1.36.44-.66.89-1.4 2.07-1.2-.51-.51-1.06-.14-1.44-.56.1-.75.68-.74 1.24-.7.65.05 1.08.44 1.16 1.06.09.62.12 1.25-.09 1.97zm-.92-.84c-.05-.27-.24-.28-.45-.26-.16.02-.3.11-.28.28.03.26.24.28.45.26.16-.02.27-.1.28-.28zM94.77 60.79c.27.35.31.75.08 1.03-.61.75-.82 1.66-1.15 2.53-.35.94-.64 1.07-1.76.87-.13-.64.59-.64.81-1.12-.03-.82-.29-1.63-.81-2.42-1.74.12-.64 1.7-1.23 2.36-.36.16-.69.12-.72-.28-.06-.92-.18-1.86.05-2.6.38-.53.68-.16.98-.21 1.52-.28 1.68-.18 2.06 1.22.05.18-.02.4.17.54.63-.54.31-1.84 1.52-1.92zM70.39 56.86c-.35.69-.82 1.07-1.47 1.26-.93-.14-1.64-.5-1.65-1.64-.01-.85.25-1.48.86-1.68 1.1-.36 1.76.26 2.21 1.21 1.41-1.61 2.12-1.75 2.58-.49-.68-.02-1.42.02-1.5.85-.1 1.03.94.73 1.47 1.03-.18.98-.74.6-1.29.51-.58-.1-.8-.6-1.21-1.05zm-1.72-1.42c-.81.89-.89 1.22-.46 1.59.33.28.83.23 1.09-.12.34-.47.17-.91-.63-1.47zM77.66 55.67c-.15-.77.48-1.07.9-1.49.4.03.47.56.9.54.36-.01.74-.06 1.24.39.23.24.09.94.59 1.31.39-.53.28-1.45 1.3-1.69-.12 1.51-.81 2.73-1.32 3.99-.22.55-.81.54-1.32.21.04-.54.71-.5.8-1.09-.24-.7-.53-1.52-.78-2.25-.43-.18-.67.02-.84.18-.36.33-.16.78-.17 1.09.16.48.77.25.84.78-.47.85-.95.35-1.52-.06V56.2c-.01-.39-.26-.52-.62-.53zM50.4 61.74c-.53.01-.69.32-.72.71-.04.42-.01.84-.05 1.25-.04.42-.34.47-.72.37-.51-.68.11-1.63-.48-2.41-.8.67.19 1.98-1.07 2.49-.47-1.07-.14-2.14-.22-3.36.8.31 1.6-.34 2.29.38.43.01.6-.63 1.13-.43 1.45.59.9 1.88.94 2.95.02.42-.32.48-.72.37-.48-.68.11-1.62-.38-2.32zM67.59 64.16c-.78.08-1.53-.03-1.8-.86-.24-.75-.22-1.55.52-2.12.16-.12.31-.27.39-.34.41-.21.68-.04.98.04.28.07.59.02 1 .02.27 1.55.42 3.05-.68 4.46-.58.09-1.19.1-1.78-.01-.27-.44-.25-.73.25-.86.38-.09.86.16 1.12-.33.04-.02.09-.03.13-.06.02-.02.02-.07.03-.1-.05.06-.1.11-.16.16zm-.77-1.02c.71.1 1.1-.17 1.03-.81-.06-.53-.44-.77-1.05-.57-.17.41-.23.83.02 1.38zM83.33 61.65c.37-.28.74-.57 1.1-.85.32-.16.61-.04.89.12.3.17.6-.22 1.06.18.02 1.35.59 2.9-.8 4.29-.53.08-1.14.09-1.73-.02-.29-.45-.24-.74.25-.85.44-.1.93.1 1.34-.21-.06-.13-.11-.28-.14-.28-1.41.16-1.81-.12-1.98-1.42-.03-.33.01-.65.01-.96zm1.11.06c-.21.54-.26.97.01 1.39.56.21.94-.02 1.02-.55.09-.63-.29-.91-1.03-.84zM37.84 59.87c1.37-.36 2.38.1 3.08 1.12.48.69.34 1.5-.08 2.21-.69 1.18-1.82.98-2.89.9-.32-1.09-.35-2.45-.11-4.23zm1.01.93c-.29.4-.2.78-.19 1.13.01.4-.13.84.2 1.18 1.4.02 1.41.01 1.28-1.92-.37-.17-.69-.57-1.29-.39zM43.26 55.72c-.44.7.03 1.46-.41 2.04-.89-.17-.89-.17-.66-2.82 1.09-.54 2.28.46 3.27-.24.59.27 1.02.59 1.03 1.18.01.61.19 1.25-.15 1.83-.12.2-.36.15-.57.06-.3-.29-.17-.67-.21-1.02-.03-.3.08-.63-.14-.9-.48.15-.48.15-1.08 2.01-.58-.26-.79-.63-.52-1.22.24-.52.01-.77-.56-.92zM39.57 53.82c.51-.08.81.17.93.62.28 1.1.78 2.12 1.27 3.08-.29.43-.57.39-.83.15-1.14-1.04-1.16-1.04-2.44.05-.23.2-.47.16-.77-.12.39-.9.78-1.84 1.19-2.78.16-.36.27-.77.65-1zm.12 1.3c-.07.39-.43.59-.29.99.28.19.54.29.74-.1-.01-.32-.19-.56-.45-.89zM54.69 61.65v2.33c-.7.29-1.33.18-1.94.18-.47 0-.79-.23-.87-.72-.07-.44.02-.84.44-1.07.39-.22.8-.42 1.32-.49-.5-.47-.97.01-1.4-.14.27-.86.72-1.14 1.38-.94.48.14.72.56 1.07.85zm-1.06 1.18c-.29-.01-.56.01-.7.32.5.51.61.06.7-.32zM75.82 60.98c.35.6 1.08.56 1.39 1.07.25 1.92-.32 2.39-2.29 1.89.15-.61.15-.61 1.38-.95.05-.64-.57-.66-.89-.94-.72-.64-.79-1.27-.2-1.88.63-.65 1.33-.58 2.06.23-.31.57-1.01.08-1.45.58zM89.46 62.83c-.59.07-1.08.12-1.58.17.28.91.94.09 1.32.37-.14.76-.42.92-1.24.8-.9-.14-1.35-.91-1.18-2.01.14-.86.86-1.51 1.56-1.41.87.11 1.23.75 1.12 2.08zm-1.48-1.12l-.03.17c.14.02.29.06.43.04.15-.03.17-.16.03-.2-.14-.04-.29-.01-.43-.01zM43.03 60.74c.92.28 1.44.78 1.52 1.65-.43.87-1.33.29-1.94.63.37.77 1.06-.03 1.62.39-.02.62-.45.75-1 .75-.7 0-1.58-.67-1.73-1.32-.17-.74.37-1.5 1.53-2.1zm.18.98c-.23 0-.44-.23-.56.16.2.06.38.13.56-.16zM59.01 60.69c1.27.93 1.63 1.68 1.29 2.6-.22.61-.92.98-1.65.87-.76-.11-1.31-.66-1.43-1.42-.15-.99.19-1.39 1.79-2.05zm-.13 2.83c.69-.53.59-1.14.38-1.75-.55-.19-.91.01-1.04.45-.15.5-.12 1.02.66 1.3zM49.51 56.48c-.57.27-1.12-.02-1.61.31.44.73 1.11.3 1.65.36.16.29.08.53-.16.68-.31.18-.61.42-1.01.32-.76-.2-1.26-.68-1.5-1.43-.2-.64.1-1.08.54-1.51.41-.4.84-.61 1.39-.41.58.2.77.69.7 1.68zm-.67-.64c-.29-.27-.56-.19-.92-.02.36.2.64.21.92.02zM66.86 57.12c-.23.49-.79.76-1.42 1.01-.43-.16-1.02-.18-.96-1 .45-.08 1.05.36 1.37-.3.03-.4-.34-.43-.58-.59-.21-.15-.42-.31-.58-.51-.38-.48-.34-1.39.05-1.73.41-.35 1.46-.32 1.84.09.07.08.01.28.01.41-.42.4-1.11-.48-1.37.38.25.68 1.23.52 1.49 1.23.08.24.28.44.15 1.01zM77.66 55.67c-.02.25-.04.51-.06.72-.63.47-1.38-.01-1.99.39.41.77 1.09.29 1.68.37.15.75-.48.94-.9.96-1.02.05-1.58-.61-1.84-1.52-.06-.3.07-.53.2-.76.76-1.35 1.3-1.44 2.52-.41.12.1.26.17.39.25zm-1.11.18c-.5-.46-.5-.46-.84.06.29.1.57.12.84-.06zM61.4 55.74c-1.59-.07-.73 1.38-1.19 1.97-.31.19-.56.01-.64-.21-.28-.85-.27-1.71-.02-2.36.43-.58.8-.22 1.14-.26 1.24-.17 1.74.2 1.84 1.39.04.49.16 1.04-.16 1.5-.47.19-.7.02-.76-.44-.06-.52.14-1.06-.21-1.59zM64.13 60.7c1.35 1.1 1.53 1.56 1.05 2.61-.35.78-.78 1-1.61.83-.76-.15-1.25-.71-1.33-1.5-.1-.98.27-1.37 1.89-1.94zm-.28 2.87c.52-.47.94-.85.61-1.51-.29-.58-.72-.46-1.16-.22-.08 1.01-.08 1.01.55 1.73zM86.47 55.67l.72-.57c.74-.56 1.53-.53 2.07.07.51.56.5 1.72-.02 2.27-.1.11-.22.23-.35.3-.27.15-.55.28-.79.4-1.34-.33-1.69-1.27-1.63-2.47zm1.76-.23c-.8.55-.97.99-.62 1.47.26.35.76.4 1.09.11.42-.36.33-.69-.47-1.58zM77.98 60.66c1.07.85.24 1.95.96 2.7.65.04.93-.29.94-1 .01-.53-.23-1.18.52-1.57.77.97.28 2.07.41 3.16-.71.28-1.42.1-2.1.16-.47.04-.71-.38-.72-.85-.02-.76-.01-1.54-.01-2.6z"/><path d="M86.47 55.67c-.35.01-.61.13-.62.54-.01.42.01.84-.05 1.25-.06.39-.35.47-.71.31-.33-.4-.25-.91-.17-1.33.11-.62-.6-.71-.63-1.32.68-.4.5-2.05 2.04-1.52.14.59-.48.51-.61.9-.02.41.55.14.63.43.07.23.09.49.12.74zM54.69 61.65c.01-.8.67-1.09 1.19-1.57.42.35.8.67 1.21 1.01-.09.57-.91.62-.86 1.35.04.66.44.96.86 1.27-.36.52-.73.54-1.13.28-.85-.57-.68-1.39-.51-2.19-.24-.22-.51-.12-.76-.15zM71.44 62.61c.28.9.97.9 1.67.68.14.54-.13.74-.43.81-.45.11-.91.13-1.35-.15-.84-.54-.73-2.03-.21-2.7.47-.61 1.11-.59 1.76.04-.14.48-.62.25-.9.42-.34.2-.49.54-.54.9zM61.12 64.05c-.25-1.98-.21-3.49.13-4.53.53.07.67.43.67.88.01 1.05.01 2.1 0 3.14 0 .48-.24.68-.8.51zM63.01 49.27c-.28.26.04.76-.5.99-.44-.45-.22-1.12-.54-1.6.58-.35 1.09-.22 1.55-.17.33.15.25.47.41.68.34-.05.28-.54.7-.57.29.44.67.87.24 1.46-.5.21-1 .05-1.49.1-.39-.19 0-.7-.37-.89zM83.33 61.65c-1.18.2-1.18.2-1.25 1.13-.03.36.01.73-.07 1.08-.07.29-.37.31-.72.2-.25-1.01-.24-2.05.03-3.14.54-.07 1.04.06 1.46-.16.41.19.56.49.55.89zM45.73 64.02c-.48.23-.77.07-.78-.39-.03-.88-.01-1.76-.01-2.67.54-.29 1.12.07 1.53-.31.79.99-.3.9-.51 1.23-.22.72.1 1.48-.23 2.14zM50.31 54.7c.66.32 1.15 0 1.65.09.48.76-.16.86-.56.98-.35.66-.01 1.32-.3 1.92-.36.25-.73.24-.77-.26-.07-.82-.02-1.64-.02-2.73zM90.37 54.81c.55.14 1.05-.04 1.51-.07.68.95-.47.82-.65 1.26l-.09 1.63c-.43.31-.8.3-.85-.19-.08-.87-.15-1.75.08-2.63zM73.28 54.74c1.05.31 1.1.57.79 2.96-.38.24-.74.2-.77-.3-.07-.82-.02-1.65-.02-2.66zM53.3 57.75c-.29.1-.57.17-.64-.04-.31-.95-.24-1.92-.04-2.84.29-.11.58-.17.64.04.31.94.24 1.91.04 2.84zM69.61 64.05c-.24-.95-.13-1.91-.09-2.78.35-.28.57-.27.86.01-.06.68-.3 1.41-.02 2.17.12.32-.21.67-.75.6zM74.17 53.91c-.01.31-.16.48-.45.47-.29-.01-.45-.19-.42-.49.02-.22.15-.36.38-.38.29-.03.45.11.49.4zM53.39 53.86c.02.34-.14.52-.43.52-.29.01-.46-.17-.44-.47.01-.21.11-.38.36-.4.29-.03.47.09.51.35zM70.36 59.94c-.06.5-.27.68-.64.67-.19-.73-.19-.73.64-.67z"/></g></svg>