<svg version="1.1" xmlns="http://www.w3.org/2000/svg" x="0" y="0" width="100" height="100" viewBox="0 0 100 100" xml:space="preserve"><g fill="#13b5b2"><path d="M45.47 42.28v4.14c0 1.45-.02 2.9.01 4.35.03 1.37-.13 2.75.11 4.1h3.11V37.26h-4.66c-1.81 4.2-3.62 8.42-5.51 12.82-2.02-4.37-3.56-8.75-5.51-12.83H28.4c-.24 6.75-.14 16.4.2 17.69.91-.06 1.85.14 2.86-.16V42.31c2.1 4.17 3.78 8.48 5.68 12.56h2.84l5.33-12.59h.16zM21.27 50.97c.88 1.25 1.06 2.81 1.97 3.9h3.37c-.15-1.11-7.45-16.25-8.49-17.64h-3.83c-2.87 5.85-5.89 11.56-8.53 17.58 1.33.23 2.48.1 3.63.12.61-1.41 1.14-2.78 1.96-3.96h9.92zm-4.85-10.78c.96 2.6 2.58 4.85 3.35 7.62h-6.86c.41-1.56 2.74-6.6 3.51-7.62zM71.18 54.8c-.25-1.18-7.77-16.61-8.55-17.57h-3.68c-.15.18-.32.34-.42.53-2.66 5.43-5.32 10.86-7.97 16.29-.13.26-.18.51.06.9 1.02-.08 2.11.13 3.23-.12.65-1.29 1.29-2.57 1.9-3.79 1.65-.19 8.76-.17 10.12.02.78 1.17 1.01 2.64 1.92 3.88.93 0 1.93.01 2.93-.01.16 0 .31-.08.46-.13zM57.4 47.68c.8-2.64 2.36-4.91 3.45-7.45 1.07 2.57 2.67 4.79 3.41 7.39-1.2.35-5.27.39-6.86.06zM93.84 57.42c-2.09-.53-3.63.28-5.08 1.34-.71.52-1.24 1.22-1.78 1.91-.11-.02-.23-.03-.34-.05-.21-1.31-1.06-2.38-1.4-3.64.01-.24.02-.47.04-.71 1.45 0 2.91.12 4.34-.04 2.06-.22 4.18-.48 5.35-2.58.03-1 .14-2.02-.75-2.94-.51-.02-.8-.67-1.45-.79-1.53-.3-2.93-.18-4.67.26-1.73.44-3.25 1.3-4.8 2.12-.12-.02-.24-.03-.36-.05-.02-1.11-.74-1.98-1.04-2.99l.03-.41c2.53.2 5.05.12 7.54-.34 1.32-.25 2.65-.57 3.83-1.28.52-.31 1.07-.6 1-1.34h.01v-.01c.21-.02.45.04.62-.29v-2.43c-.31-.46-.64-.96-.91-1.36-2.56-1.7-5.17-1.39-7.83-.69-2.4.64-4.5 1.91-6.62 3.13v-.01h-.01c-.19-1.25-.88-2.32-1.46-3.6 2.35-1.23 4.34-3.13 7.19-2.81 1.18-.62 2.4-.94 3.6-1.33.72-.23 1.27-.62 1.37-1.44-.46-1.17-.46-1.17-1.32-1.89-.39 0-.87.11-1.27-.02-2.49-.79-4.73-.15-6.98.98-1.52.76-2.97 1.62-4.47 2.41v-.01h-.01c-.51-2.14-1.73-3.98-2.46-6.04-1.37.07-2.63-.14-4.07.16 1.25 2.62 2.43 5.14 3.87 7.54.02.24.16.34.39.34-1.09 1.36-2.14 2.73-2.61 4.46-.5 1.85.2 3.32 1.89 3.91h.16l.16.01c.44.8 1.16 1.04 2.02 1 .01.23.01.46.02.68-.57.77-.78 1.71-.93 2.59-.18 1.04.18 2.07 1.13 2.73.09.06.31-.05.46-.08.02.16-.03.42.06.47 1.02.65 1.96 1.55 3.33 1.18-.42 1.28-1.33 2.39-1.34 3.83.39.64.25 1.65 1.28 1.88 1.79 1.38 3.85 1.52 5.99 1.4l.04-.64h.01c.2.02.44-.08.57.17-.62 1.29-.97 2.57.14 3.96.32-.57.24-1.02.3-1.44l.62.03c.62 1.63 1.48 3.14 2.28 4.61.34.04.56.06.76-.18 0-.12.05-.31-.01-.44-.65-1.56-1.31-3.12-2-4.67-.17-.37-.19-.9-.74-1 .13-.37.47-.42.78-.53.2.18.42.17.66.09.79-.14 1.61-.16 2.37-.32 1.05-.23 2.29-.17 2.99-1.27.5.02.74-.19.62-.71.16-1.21-.13-2.26-1.11-2.82zM85.2 33.58c.2.59-.18.74-.65.99-.22-.2-.38-.35-.54-.5.28-.57.69-.64 1.19-.49zm4.11 19.39c.51-.15 1.07-.05 1.61-.29.44-.2.97-.02 1.42.24l-.03.33c-2.26 1.37-4.8 1.57-7.35 1.72l-.03-.03c1.17-1.28 2.84-1.5 4.38-1.97zm-4.13-7.71c2.06-.83 4.22-1.19 6.45-.99l.03.63c-1.81 1.32-3.86 1.96-6.08 2.02-1.1.03-2.2 0-3.3 0 .7-1 1.86-1.24 2.9-1.66zm-11.28.66l-.03-.37c.26-1.21 1.09-1.98 2.01-2.7.1.04.2.06.31.08 0 1.07.79 1.77 1.24 2.63h.49c0-.1.03-.19.08-.24-.05.05-.08.14-.08.24v.01h.01c-.14.47-.5.67-.93.8l-.45-.09c-.89-.06-1.71-.64-2.65-.36zm5.97 8.21c-1.25-.13-2.2-1.07-3.43-1.18.48-1.46 1.32-2.69 2.48-3.7.13 0 .26.01.39.01.64 1.38 1.25 2.77 2.07 4.01h.56v.01h.01c-.43.73-1.11 1.22-1.69 1.8 0-.38.07-.9-.39-.95zm0 6.18c.57-1.82 1.88-3.09 3.27-4.3.1-.09.31-.05.47-.07 0 .01-.01.01-.01.02.01 0 .01-.01.01-.01-.13.22-.26.45-.41.71.5 1.63 1.68 2.97 2.09 4.65-1.89.14-3.67-.31-5.42-1zM47.84 66.44c-.06.33.21.82-.49.91-.47-.59-.85-1.34-1.73-1.76-.88 1.21-.32 2.46-.42 3.6.32.13.53.16.81-.04.04-.64.08-1.35.11-1.92 1.31.16.94 2.1 2.52 2.11.17-1.24.17-2.42 0-3.66-.53.07-.72.35-.8.76zM47.29 62.61c.09-1.19.26-2.37.04-3.56-.3-.02-.52-.11-.77.08-.41.79-.84 1.63-1.27 2.47-.73-.41-.37-1.39-1.14-1.65-.07-.75-.43-.84-1.02-.49.01.2.02.35.03.5-.03.89-.25 1.8.26 2.94.58-.95.15-1.81.45-2.54.67.68.54 1.72 1.26 2.34 1.19-.37.75-1.76 1.57-2.29.31.7-.27 1.61.59 2.2zM14.81 66.68c.89-.7 1.5-.35 2 .22.27-.19.47-.31.45-.6-.11-.32-.36-.51-.71-.63-.58.02-1.19-.1-1.71.06-.7.5-.68 1.04-.32 1.65.65.46 1.57.32 2.27.98-.59.46-1.12.34-1.73.27-.14-.52-.44-.86-1.09-.33.7 1.18 1.76 1.09 2.75.99.74-.51.73-1.05.47-1.55-.66-.73-1.6-.54-2.38-1.06zM21.43 65.7H19.6c-.73.41-1.09 1.07-1.26 1.92.27.63.52 1.31 1.31 1.69.92.06 1.95.21 2.49-.94.5-1.07.12-1.92-.71-2.67zm.18 2.45c-.78.57-.78.57-2.03.37-.41-.66-.35-1.24-.15-1.86.72-.53 1.41-.53 2.08-.01.25.53.18 1.02.1 1.5zM10.53 66.71c.71-.87 1.37-.1 1.95-.08.24-.42.17-.7-.18-.93h-1.77c-.4.29-.76.55-.87.97.4 1.31 1.9.88 2.76 1.71-.98.57-1.67.36-2.33-.28-.12-.12-.31-.01-.43.15.03.49.45.71.84 1.06.91.06 1.75.13 2.39-.59.02-.32.15-.66-.11-.93-.52-.73-1.53-.58-2.25-1.08zM53.25 59.05v3.58c.96-.06 1.92.31 2.57-.64.9.02.72-.78 1.02-1.21-.22-.46-.41-.85-.55-1.14-.99-.83-2-.7-3.04-.59zm.7 2.92c-.25-.71-.09-1.42-.13-2.1.79-.57 1.36-.05 1.99.23v1.87h-1.86zM43.04 65.68h-1.63c-.43.25-.74.56-.96.95v1.76c.29.43.58.76 1.06.95.65-.11 1.54.38 1.93-.66.87-.53.68-1.35.63-2.08-.32-.44-.6-.78-1.03-.92zm.38 2.99h-1.74c-.89-.48-.58-1.22-.58-1.8.55-.81 1.23-.51 1.76-.55.97.69.42 1.59.56 2.35zM7.61 67c.02-.43.08-.88-.21-1.26-.22-.05-.51-.16-.63.02-.7 1.04-1.28 2.14-1.77 3.28-.02.05.11.16.18.24.65.03.61-.71.96-.89h1.5c.67.16.5.93 1.11.89.09-1.08-.25-1.76-1.14-2.28zm-.88.6c-.2-.3-.17-.58.05-.85.38-.23.5.3.82.26-.02.2-.05.39-.07.53-.31.23-.55.17-.8.06zM6.71 59.42c-.44.95-.92 1.99-1.39 3.03-.01.02.07.08.12.13.56.17.63-.53 1.18-.63h1.41c.08.13.17.26.26.39.13.18.26.37.64.13-.1-1.12-.79-2.04-1.35-3-.15-.25-.48-.21-.87-.05zm.81 1.77c-.32.21-.61.15-.95-.05.13-.5.33-.73.68-.84.48.18.42.52.27.89zM31.67 61.97h1.4c.51.12.6.82 1.32.54-.48-1.14-.97-2.24-1.8-3.5-1.03 1.13-1.66 2.19-1.87 3.54.69.17.61-.52.95-.58zm.91-1.95c.16.34.33.67.47.96-.21.53-.57.24-.87.36-.28-.63-.11-1.01.4-1.32zM32.07 65.65c-1.12 1.22-2.13 3.36-1.75 3.64.1-.03.24-.02.3-.09.25-.28.48-.57.74-.89l1.97.12c.08.18-.05.5.31.5.19-.19.09-.39.09-.58-.37-1.02-.65-2.09-1.66-2.7zm-.34 1.85c-.04-.4.19-.62.52-.81.13.29.27.58.4.87-.35.22-.65.21-.92-.06zM16.96 61.69c.37-.83 1.35.01 1.68-.7-.15-.42-.45-.32-.71-.35-.32-.03-.68.12-.92-.22-.04-.49.29-.48.65-.51.34-.03.81.23 1-.45-.71-.35-1.45-.09-2.26-.18v3.36c.9-.01 1.7.1 2.51-.07-.35-1.04-1.55-.11-1.95-.88zM23.27 59.82c-.77-.95-1.84-.39-2.9-.53 0 1.14-.01 2.13.01 3.11 0 .14.2.24.38.21.53-.29-.05-1 .45-1.27h1.37c.04.32.07.65.11.97.02.29.21.39.44.29.25-.11.11-.23-.06-.31-.04-.33-.08-.65-.11-.98-.08-.51.51-.86.31-1.49zm-2.1.8c-.24-.33-.22-.58-.06-.87.71-.25 1.3-.21 1.58.69-.56.36-1.07.2-1.52.18zM63.04 59.94c.12.1.3.01.42-.16-.22-.32-.49-.59-.86-.78-.42-.01-.86-.11-1.27.05-1.25 1.18-1.28 1.27-.96 2.88 1.6 1.08 2.3 1.05 3.09-.26-.86.13-1.7.8-2.53-.1-.08-.56-.32-1.21.29-1.83.6-.21 1.22-.28 1.82.2zM38.98 62.47v-3.01c-.28-.21-.48-.18-.69-.07-.41.33.16 1.04-.52 1.28-.23-.12-.47-.24-.71-.36a.311.311 0 0 0-.29-.06c-.03-.32.04-.67-.28-.9-.27-.07-.54-.14-.71.11v3.24c.93-.75.44-1.58.45-2.35l.47-.03c-.01.11.01.21.06.3.15.55.51.93.97 1.26.39.28.45 1.16 1.25.59zM24.42 68.46c-.2-.69-.1-1.4-.04-2.1.78-.19 1.53.01 2.47.33-.62-1.44-1.57-.96-2.4-.95-.06.23-.1.39-.14.54-.86.06-.68.84-.94 1.22.4 1.53 1.36 2 2.76 1.78.38-.32.93-.53.72-1.38-.79.61-1.5 1.18-2.43.56zM38.59 65.67c-.31 1.22-.12 2.38-.12 3.84 1.33-.75.74-1.74.87-2.52.09-.54.06-1.1-.75-1.32zM57.87 59.36c.08 1.08-.27 2.2.33 3.23.44-1.18.34-2.37.2-3.55-.33-.03-.55.07-.53.32zM28.77 69.27c.28-1.18.4-2.36-.07-3.54-.36 1.19-.46 2.37.07 3.54zM24.77 59.37c-.09 1.08-.28 2.17.28 3.24.42-.92.25-1.86.3-2.78 0-.32-.12-.53-.58-.46zM29.98 60.25c-.13-1.14-1.11-.84-1.63-1.21-.39.24-1.02.19-1.05.87-.21.05-.44.06-.57.36-.06.48-.09 1.01.03 1.54l.71.85c.63-.13 1.21.33 1.6-.33.45.02.74-.1.54-.65-.3.15-.53.29-.59.6-.74.13-1.25-.18-1.6-.84v-1.43c.84-.32 1.66.19 2.56.24zM49.49 61.92c.04-.3-.13-.65.24-.91l1.4-.06c.09-.03.23-.04.24-.09.05-.19-.1-.21-.24-.21-.51-.1-1.06.1-1.64-.19v-.76c.55-.02 1.11-.05 1.66-.07.29-.01.56-.03.55-.42-1.39-.33-1.68-.32-2.55.11 0 1 0 2-.01 3 1.01.51 1.95.47 2.6-.16-.74-.32-1.52-.05-2.25-.24zM14.22 62.53c.06-1.07.24-2.14-.03-3.22-.72.03-.92.42-.92.99-.73.14-.41 1.07-1.04 1.41-.42-.43-.24-1.25-.94-1.42-.02-.32.08-.67-.22-.93-.27-.09-.54-.16-.81.21.04.95-.11 1.99.35 3.03v-2.28c.11-.02.22-.04.32-.05l.16.05h.17c.24.91.01 2.12 1.47 2.36.31-.86.59-1.62.87-2.38.49.11.3.5.33.8.07.48-.11 1 .29 1.43zM70.23 61.95c-.02-.88-.03-1.77-.05-2.65-.03-.08-.04-.22-.08-.23-.17-.05-.19.1-.21.22.12 1.09-.54 2.14-.19 3.28h.52c.49.02.98.05 1.47.06.29 0 .53-.08.44-.52-.6-.24-1.27-.03-1.9-.16zM66.41 59.03c-.3.26-.23.6-.25.9-.99.6-1.21 1.62-1.58 2.61.85.15.79-.63 1.16-.83h1.66c.28.39.39.97 1.13.83-.18-.96-.8-1.58-1.27-2.28-.06-.58-.05-1.19-.85-1.23zm.79 2.08c-.42.29-.83.25-1.24.07-.21-.47.42-.77.24-1.22.42-.14.66.26 1 .34v.81zM36.07 65.75h-.67c-.45-.03-.93-.26-1.36.25.42.52.93.26 1.37.29.25.97-.38 2.09.54 3.07.22-.81.09-1.52.13-2.22.02-.32-.09-.68.31-.86.45-.02 1.02.29 1.36-.49-.64-.14-1.15-.16-1.68-.04z"/></g></svg>