<svg version="1.1" id="Layer_1" xmlns="http://www.w3.org/2000/svg" x="0" y="0" viewBox="0 0 100 100" xml:space="preserve"><style type="text/css">.st0{fill:#3a66a5}</style><path class="st0" d="M18.1 42.6v2.3h-1.3s-1.1-.2-1.1.9v1.8h2.4l-.3 2.5h-2.1V57h-2.8v-7H11v-2.4h2v-2.1s-.2-1.1.8-2.1c1-.9 2.4-.9 2.4-.9h1.9zM24.8 47.6v1.2c-.7-.9-1.7-1.5-2.8-1.5-2.1 0-3.9 1.9-3.9 5s1.7 5 3.9 5c1.1 0 2.1-.6 2.8-1.5V57h2.7v-9.4h-2.7zm-.2 5.7c0 .9-.8 1.8-1.8 1.8s-1.8-.9-1.8-1.8v-1.8c0-.9.8-1.8 1.8-1.8s1.8.9 1.8 1.8v1.8zM49.2 57.1v-1.2c.7.9 1.7 1.5 2.8 1.5 2.1 0 3.9-1.9 3.9-5s-1.7-5-3.9-5c-1.1 0-2.1.6-2.8 1.5v-6.2l-2.8.3v14l2.8.1zm.2-5.7c0-.9.8-1.8 1.8-1.8s1.8.9 1.8 1.8v1.8c0 .9-.8 1.8-1.8 1.8s-1.8-.9-1.8-1.8v-1.8zM33.5 55.1s-2.1.1-2.1-2.6v-.2c0-2.8 2.1-2.6 2.1-2.6 1.4 0 2 .5 2 .5l.7-2c-1.2-.9-4.7-1-6.2.4-1.4 1.2-1.4 3.3-1.3 3.8 0 .5 0 2.5 1.3 3.8 1.6 1.4 5.1 1.3 6.2.4l-.7-2c-.1 0-.6.5-2 .5z"/><path class="st0" d="M45.3 53.3s1.1-5.9-4.2-5.9c-5.3 0-4.6 5.3-4.6 5.3.1 3.2 1.6 4.2 4.1 4.5 2.5.3 4.5-.7 4.5-.7l-.6-1.9s-2.1.6-3.7.5c-1.6-.1-1.5-1.8-1.5-1.8h6zm-6-1.8s-.1-2.1 1.7-2.1c1.9 0 1.7 2.1 1.7 2.1h-3.4zM61.4 47.5c-3.5 0-4.7 2.1-4.7 4.9 0 3 1.5 4.9 4.7 4.9 2.6 0 4.7-1.7 4.7-4.9-.1-2.7-1.4-4.9-4.7-4.9zm1.8 5.7c0 .9-.8 1.8-1.8 1.8s-1.8-.9-1.8-1.8v-1.8c0-.9.8-1.8 1.8-1.8s1.8.9 1.8 1.8v1.8zM71.7 47.5c-3.5 0-4.7 2.1-4.7 4.9 0 3 1.5 4.9 4.7 4.9 2.6 0 4.7-1.7 4.7-4.9-.1-2.7-1.4-4.9-4.7-4.9zm1.8 5.7c0 .9-.8 1.8-1.8 1.8s-1.8-.9-1.8-1.8v-1.8c0-.9.8-1.8 1.8-1.8s1.8.9 1.8 1.8v1.8zM86.1 57L83 52.3l2.9-4.7H83l-2.9 4.2v-9.1l-2.8.3v14h2.8v-4.7l3.1 4.7z"/></svg>