<svg version="1.1" id="Layer_1" xmlns="http://www.w3.org/2000/svg" x="0" y="0" viewBox="0 0 100 100" xml:space="preserve"><style type="text/css">.st0,.st1{fill-rule:evenodd;clip-rule:evenodd;fill:#dc4e41}.st1{fill:#fff}</style><path class="st0" d="M25 72.9V27.2c0-1.2.9-2.2 2.2-2.2h45.7c1.2 0 2.1.9 2.1 2.2v45.7c0 1.2-.9 2.2-2.2 2.2H27.2c-1.3-.1-2.2-1-2.2-2.2z"/><path class="st1" d="M61.2 46.4v2.4h2.5v2.4h-2.5v2.5h-2.4v-2.5h-2.5v-2.4h2.5v-2.4zM38.8 56.1c-3.3-3.3-3.3-9 .1-12.3 2.5-2.4 6.1-3.1 9.2-1.8l1.3.6 1.3.9-2.3 2.2-.8-.6c-2-1.2-4.7-.9-6.4.8-2.1 2.1-2.2 5.8-.1 7.9 2.1 2.1 5.8 2.2 7.7.1.6-.6 1.1-1.4 1.2-2.1l.1-.2h-4.9v-2.7h7.9l.1.6v1.8c-.2 1.8-.8 3.5-2.1 4.8-3.2 3.4-9 3.4-12.3 0z"/></svg>