<svg version="1.1" xmlns="http://www.w3.org/2000/svg" x="0" y="0" width="100" height="100" viewBox="0 0 100 100" xml:space="preserve"><g fill="#13b5b2"><path d="M81.89 68.89c-1.84.38-3.39.16-4.93.2-1.5.04-3 .01-4.5.01H54.13c-.23 1.4.8 2.52.43 3.84-1.64.64-3.18.37-4.65-.37-.76-.38-1.5-.85-2.09-1.5-.7-.78-1.53-1.38-2.63-2.04H18.2c1.86-3.54 3.86-6.73 5.69-10.01 1.82-3.25 3.68-6.48 5.54-9.71 1.89-3.27 3.79-6.53 5.64-9.7-1.95-2.07-3.86-4.1-5.68-6.46 3.81-3.12 8.2-4.83 12.83-6.08 2.49-4.32 4.98-8.63 7.61-13.19 3.74 6.21 7.19 12.33 10.74 18.39 3.56 6.09 7.06 12.21 10.63 18.29 3.56 6.05 7.05 12.13 10.69 18.33zm-25.81-13.5c-1.4 2.28-2.78 4.53-4.14 6.78-.24.4-.33.83-.38 1.31-.16 1.49.77 2.44 1.53 3.48h25.46c-9.53-16.42-18.98-32.69-28.58-49.24-1.77 2.87-3.26 5.61-4.93 8.56 2.57-.5 4.94-.96 7.42-1.45.82 2.91 1.82 5.7 2.79 8.49.95 2.73 2.41 5.3 3.37 8.05.98 2.81 2.39 5.41 3.69 7.83-.23.84-.93.81-1.2 1.26.17 1.48-.68 2.87-.22 4.28-.89.81-1.75 1.09-2.78.68-.61-.24-1.24-.18-2.03-.03zm-8.88-1.78c-3.89-4.16-7.25-8.46-10.67-12.63-4.94 8.6-9.91 17.25-14.92 25.95 4.26.26 18.73.16 19.98-.13-1.27-.14-1.27-.14-2-.65 1.86-4.54 5.23-8.17 7.61-12.54zm-3.23 6.24c.29.17.34.22.39.22.17.02.35.04.52.02 1.76-.2 2.98.55 3.79 2.09.24.45.55.87.88 1.27.37.45.43 1.2 1.21 1.26-.14-1.38-.04-1.93.72-3.73 1.02-2.43 1.53-4.89.6-7.49-.29-.82-.22-.84.13-1.81 1.9 2.82 4.77 3.15 7.69 3.24.7-.95-.37-1.68.22-2.41-.57-.32-1.01-.56-1.56-.87.68-.25 1.25-.47 1.97-.74-.17-.94.43-1.63 1.05-2.26-1.16-1.51-1.64-3.27-2.57-4.63-1.55-.72-2.36 1.36-3.85.74 1.12-.76 2.19-1.49 3.25-2.21.11-.57-.1-.91-.69-1.07-1.22.58-2.31 1.41-3.41 2.23-1.63 1.22-3.31 2.27-5.44 2.27-.2 0-.4.19-.58.28-.31.77-.2 1.51-.13 2.19 1.04 1.18.75 1.32 3.35 2.34-.86.84-1.75-.19-2.88.16-.51 3.36-2.58 6.1-4.66 8.91zm9.9 12.59c.18-.88-.2-1.29-.97-1.24-1.3.08-2.13-.63-2.98-1.46-.86-.84-1.24-1.93-1.76-2.94-.74-1.46-1.54-2.82-3.23-3.55-.46.02-1.08-.19-1.58.13-.58.37-1.1-.14-1.68-.02-.39.74-.86 1.44-1.06 2.42 1.86.16 3.36.97 4.77 1.96 1.09.77 1.9 1.84 2.88 2.72 1.58 1.4 3.31 2.43 5.61 1.98zm-.42-29.08c1.47-.94 2.85-1.82 4.22-2.69-.24-.76-.27-1.53-.97-2.03-1.49.51-2.81 1.23-3.9 2.32.2.77.41 1.53.65 2.4zm-6.51 4.65c-.68.81-1.7 1.04-2.24 2.02.63.39.92 1.06 1.64 1.34.6-1.06.89-2.06.6-3.36zm-.09-4.95v-.24c-.83 0-1.66-.01-2.49.01-.16 0-.41-.1-.48.23h2.97zm5.04 27.32c.57-1.01-.04-1.52-.15-2.1-.19.58-.25 1.16.15 2.1zm-1.86-3.65c-.35.66-.82 1.11 0 1.53.21-.46.18-.88 0-1.53zm-1.45-23.7c.02.52-.34 1.06.2 1.76-.05-.72.12-1.25-.2-1.76zM25.62 83.98v.58c-.17.6-.88-.21-.92.53.56.65 1.14 0 1.69 0 .41.1.58.61 1.05.52.17-.13.2-.28.11-.45-.25-.52-1.12-.51-.99-1.61.1-.26.5-.6 1.16-.6h5.45c.46.35-.12.78.2 1.19.1.12.3.19.54.13.61-.29-.04-.71.11-1.05.31-.46.7-.18 1.06-.21.46.86-.02 1.79.45 2.71.85-.78.17-1.8.65-2.66h6.99c-.24.97-.42 1.9-.11 2.82-.46.34-.89.12-1.35.15.1-.79.25-1.46.06-2.17-.37-.04-.74-.09-1.11-.13-.37.76-.1 1.49-.08 2.2-.39.25-.79.08-1.23.13-.08-.77.3-1.5-.05-2.21-1.25-.63-1.01 1.62-2.2 1 .14.82 1.02.23 1.19.83.02.22-.16.33-.31.34-1.26.02-2.52.01-3.76.01-.29-.4.23-.82-.1-1.13-.2-.24-.43-.18-.65-.13-.43.34-.14.74-.08 1.12-.42.33-.86.11-1.33.17.05-.78.23-1.45.05-2.13-.35-.16-.72-.19-1.16-.15-.25.7-.18 1.42.04 2.11-.43.28-.83.17-1.35.13-.06-.73.41-1.54-.14-2.3-.41.12-.84.25-1.32.39.09.18.17.31.24.45.45.97.18 1.62-.76 1.48-1.87-.28-3.73.35-5.61-.06.06-.57-.03-1.1-.48-1.52-1.11.18-1.11.18-1.06 1.51-.44.16-.87.18-1.38-.09 1.12-1.23 1.21-2.97 2.28-4.35 1.3 1.08.98 2.9 1.98 4.06.53-.99.53-.99.25-2.48.72-.25 1.43-.2 2.1-.06.29.43.26.72-.12.93-.72-.36-.72-.36-.79.25.31.08.52-.18.79-.25zM47.93 81.6h2.59c.7.27.9.87 1.27 1.23.46.23.98-.04 1.39.35-.01.68-.55 1.39-.01 2.09.46.28.88-.31 1.3-.02.6-.68.64-1.66 1.39-2.2.89.59.75 1.68 1.3 2.41-.01 0 1.51.05 1.63.05-.32-.66-1.2-.79-1.3-1.57.22-.52.59-1.01 1.24-.96 1.88.15 3.76-.21 5.71.05-.01.93-.27 1.89.08 2.81-.38.47-.84.12-1.41.29.17-.8.26-1.46.15-2.16-.31-.26-.71-.16-1.15-.21-.31.7-.2 1.42 0 2.13-.43.37-.87.12-1.34.17.05-.82.27-1.55-.01-2.25-.53-.12-.91.22-1.34.28-.14.36.24.47.31.72.21.71-.02 1.18-.71 1.24-.86.07-1.72.02-2.37.02-.72-.12-.45-.8-.92-.93-.58 0-.58.41-.56.89h-3.33c-.16-.81.42-1.77-.32-2.57-.46.38-.85.79-1.41.83-.34-.31-.16-.53.02-.76.14-.18.32-.33.29-.64-.09-.33-.29-.56-.8-.49-.27 1.16-.18 2.34 0 3.55-.55.22-1.1.17-1.67.03.73-1.45.7-2.86-.02-4.38zM12.81 78.79c.28.05.56.1.85.15.31-.33.15-.75.17-1.13.01-.32-.07-.65-.1-.96.28-.24.57-.13.93-.09.24.37.5.78.81 1.26.57-.61.77-1.66 1.96-1.22-.03.79-.27 1.63.06 2.46-.38.36-.82.22-1.24.15-.33-.35.31-.77-.18-1.14-.22.37-.44.75-.65 1.12-.72-.07-.6-.83-1.03-1.09-.42.32.11.72-.14 1.17-.85-.3-1.62.58-2.59.15-.84-.37-1.81-.04-2.76-.2.02-.75.28-1.47-.02-2.19-.72.66-.69 1.69-1.32 2.48-.84-.82-.85-2-1.61-3.04-.01 1.11-.34 2.01.49 2.7-.49.56-.89 0-1.3.03-.35-1.38 1.16-2.83-.14-4.2.44-.34.88-.2 1.36-.12.44.94.81 1.95 1.45 2.91.36-1.08.82-1.99 1.3-2.79.4-.29.72-.17 1.19-.14-.06.73-.34 1.36-.26 2.04.08.65-.09 1.33.23 2.22.73-.86.29-1.66.59-2.4.41-.27.94-.47 1.51-.5.51-.02.66.35.44 1-.72-.36-.72-.36-.79.25.32.08.52-.18.79-.25v1.37c-.3-.02-.54-.51-.9-.12.35.4.35.4.9.12zM84.44 79.14c-1.36 1.15-2.13.8-3.31-.51-.34.66-.93.99-1.63 1.18-.72-.04-1.23-.53-1.86-.91-.62.57-1.2 1.29-2.23.76-.54-.28-.79-.63-.56-1.4.36.26.49.76.92.83.47.08.78-.11 1.01-.62-.4-.91-1.74-1.06-2-2.15.61-1.42.61-1.42 2.53-1.21.06.13.16.28.18.43.03.16-.01.34-.02.52-.36.27-.48-.13-.7-.23-.27-.12-.53-.22-.89.06.05 1.03 1.19 1.03 1.74 1.85.37-.83 1.02-1.13 1.67-1.37 1.17.41 1.17.41 1.84 1.18 1.12-1.25 1.92-1.68 3.3-.5-.16.32-.39.34-.69.19-.42-.21-.84-.29-1.33.1.01.54-.25 1.15.14 1.62.75.41 1.21-.12 1.77-.43.06.29.09.45.12.61zm-4.17-1.13c-.34-.4-.35-1.09-1.1-.87-.67 1.12-.67 1.12.25 1.97.56-.08.62-.57.85-1.1z"/><path d="M88.59 78.79c.16.03.32.06.5.1-.02.51-.41.66-.81.93-.96-.37-2.04-.35-3.12-.33-.3.01-.57-.05-.72-.35.47-.88.47-1.2 0-2.08.12-.11.24-.29.37-.31.33-.05.68-.01 1.11-.01.09.77-.39 1.57.2 2.38.76-.62.13-1.55.53-2.19 1.03-.84 2.27-.24 3.4-.45.37-.07.83.03 1.29-.03.96-.13 1.91.01 2.28 1.12.58-.1.47-1.1 1.39-.71-.36.75-1.38 1.41-.65 2.42-.47.31-.91.26-1.48.08.56-.9-.18-1.44-.63-2.08-.34.05-.7-.23-1.16.02-.11.63-.11 1.3.1 1.99-.39.34-.83.22-1.39.1.15-.65.23-1.31.12-2.03-.46-.27-.79.21-1.13.14-.28.49-.16.9-.2 1.29-.3-.02-.55-.5-.91-.11.22.73.56.49.91.11zM45.34 78.79c.16.03.32.06.6.12-.34.57-.69 1.05-1.34.85-1.04-.32-2.12-.13-3.12-.34-.25-.28.17-.59-.02-.72-.31-.28-.52-.24-.71-.15-.36.24-.01.55-.13.82-.42.18-.85.2-1.3-.01.1-.69.23-1.36.05-2.06-.37-.04-.74-.09-1.11-.13-.36.76-.09 1.49-.08 2.2-.39.21-.78.14-1.24.05-.08-.69.31-1.42-.02-2.1-.25-.18-.57.24-.78-.11.46-.92.46-.92 4.44-.38.23.23-.2.55-.01.67.31.28.52.24.7.16.37-.24.02-.55.16-.83.4-.18.83-.19 1.3.03-.16.56-.18 1.13-.13 1.69.01.16.11.31.23.61.82-.66.16-1.59.69-2.34.59.04 1.24-.93 2.12.07-.09.58-.42 1.22-.3 1.9-.3-.02-.54-.51-.9-.12.34.4.34.4.9.12zM61.6 77.06c.37-.57.91-.32 1.49-.31-.01.84-.27 1.68.1 2.58l-1.76.48c-.39.01-.61-.29-.9-.46-1.5.05-2.99.69-4.59 0 .05-.75.28-1.59-.08-2.46.47-.18.94-.35 1.31-.49.57.01.82.34 1.08.61.27.99-.47 1.38-1.14 1.78.61.69 1.12-.06 1.72.15v-1.89c1-.8 1.88-.41 2.77.01.15.57-.57.84-.52 1.41.13.17.26.36.41.52.04.04.19-.03.39-.07-.01-.62.35-1.28-.28-1.86zM66.54 77.18c-.66.08-1.09-.27-1.62.03-.35.5-.2 1.1-.11 1.81 2 .28 2.39-1.58 3.43-2.51.84.64.52 1.92 1.52 2.49.31-.73.07-1.44.02-2.16 1.18-.53 1.54.7 2.31 1.07.48-.31.02-.7.08-1.04.19-.21.4-.13.66-.05.54.93-.26 1.82.01 2.83-1.25-.05-1.14-1.48-2.05-1.71-.46.44.04.95-.1 1.48h-2.23c-.29-.07.1-.62-.37-.6-2.54 1.51-3.74 1.32-4.68-.74.85-1.81 1.8-2.15 3.13-.9zM55.16 79.36c-.86.03-.86.03-1.26-.65-.42-.02-.32.55-.36.56-.79.12-.8-.35-1.04-.55-.1-.08-.19-.05-.22.11-.15.81-.7.95-1.39.84-.39-.07-.77-.19-1.16-.28.08-.6.05-1.21-.72-1.23-.78-.02-.91.52-.74 1.18-.31.22-.63.22-1.07 0 .71-1.39 1.06-2.95 2.05-4.37 1.08 1.27.91 2.95 1.94 4.21.64-.78.26-1.56.23-2.31 1.15-.5 1.44.39 1.75 1.24.77-.37.67-1.75 1.97-1.27-.12.78-.18 1.65.02 2.52zM79.25 85.72c-.08.08-.15.24-.23.24-.99.02-1.99.01-2.98.01-.04-.76.33-1.54-.24-2.36-.66.75-.05 1.89-1.3 2.44-.3.06-.91.1-1.46-.15-.75-.83.03-1.92-.74-2.56.5-.55.97-.37 1.51-.35 0 .87-.29 1.77.08 2.63 1.01-.58 1.02-.64.6-2.52 1.35-.18 2.67-.44 3.87.29.29.47.21.85.06 1.23-.17.46.17.6.48.75.19.05.3.17.35.35zM84.79 85.02c.16.15.32.3.59.54.19-.84.11-1.57-.21-2.38 1.03-.43 1.89-.3 2.63.29.27.57-.03 1-.07 1.45.25.31.49.63.82 1.05h-5.96c.14-.92.24-1.87-.19-2.81.78-.36 1.49-.22 2.2-.15.41.71-.48 1.43.19 2.01-.37.16-.93-.62-1.21.23.47.16.89.26 1.21-.23zM10.22 84.84c-.3.45.04.77-.05 1.1-.38.22-.77.13-1.25.08.04-.97.19-1.96-.08-3.04.96 0 1.88-.27 2.73.56.55-.48 1.23-.79 1.98-.53.63.22.98.77 1.18 1.45-.16.42-.1.97-.24 1.11-.6.55-1.02.49-1.41.5-.34.01-.68 0-.96 0-.94-.9-.94-.9-1.9-1.23zm2.94-1.2c-.66.06-1.08.36-.97.97.09.52.23 1.17 1.04 1.04.66-.64.69-1.28-.07-2.01z"/><path d="M69.74 81.86c1.37-.49 1.37-.49 2.51-.03.06.23.09.45-.14.64-.53.19-.65-.92-1.39-.35-.27.49-.01.87.51 1.13 1.07.53 1.34 1.34.93 2.42-.72.64-1.54.33-2.28.36-.36-.36-.64-.69-.53-1.3.71.12.83 1.28 1.72.85.28-.25.21-.6.15-.94-.72-.77-2.1-1.19-1.48-2.78zM15.01 85.96c.41-.97.05-1.91.35-2.86.81-.32 1.52-.17 2.18.39.25.46.09.88-.08 1.3.07.48.67.62.7 1.16-1.04.01-2.07.01-3.15.01zM20.57 77.09c.34.39-.06.69.07 1.05.35 1.03.24 1.01-.64 1.43-.71.34-1.19-.06-1.81-.22.18-.83.2-1.66 0-2.48.84-.48 1.62-.57 2.38.22zM24.3 79.51v-2.55c.95-.56 1.84-.6 2.61.27.08.5-.32.67-.43.99.02.58.88.74.74 1.59-.91-.42-1.82-.51-2.92-.3zm1.22-1.57c.1-.1.23-.2.3-.33.09-.15.06-.31-.03-.36-.27-.13-.4-.02-.46.13-.06.19-.08.4.19.56zM28.46 78.06c.17-.9.78-1.42 1.75-1.67.54.02 1.02.31 1.46.7.28.6.2 1.22.12 1.76-.32.67-.95.71-1.36.98-1.07-.18-1.78-.66-1.97-1.77zm2.15-.93c-.7-.08-1.14.15-1.13.88 0 .63.41.92 1.24.94.11-.59.18-1.18-.11-1.82zM21.32 76.86c.81-.25 1.58-.86 2.49-.04-.11.85-.24 1.68-1.28 1.92.43.7.96.04 1.36.44-.78 1.32-1.72.06-2.62.34.25-1.01.22-1.84.05-2.66zM79.25 85.72a.479.479 0 0 0-.35-.35v-1.49c.68-.78 1.46-1.05 2.37-.89.4.07.76.28.59.88-.58.25-1.2-1.11-1.8.09-.13.59-.31 1.32.54 1.72.46-.25.22-.54.21-.81.29-.3.62-.18.95-.11.33.33.31.7.07 1.19-.85.18-1.73.26-2.58-.23zM34.5 78.62c-.31-.01-.52-.18-.73-.01-.32.23.1.53-.1.78-.37.19-.75.12-1.26.04.15-.85.18-1.71-.01-2.72.84.28 1.66-.91 2.5.2-.13.53-.26 1.07-.4 1.71zM88.3 83.25c.43-.46.89-.28 1.31-.27.46.2-.22.71.3.87.18.06.32-.06.36-.21.13-.53.34-.86 1.02-.5-.11.96-1.42 1.61-.76 2.75-.48.24-.91.23-1.37.05-.03-.46.24-.89.09-1.26-.21-.6-.86-.85-.95-1.43zM46.47 83.92c-.63-.22-.99-.35-1.34-.48-.83.86-1.02 1.39-.62 1.89.6.76 1.18.11 1.71-.17.19.34.15.55-.03.73-1.89.29-2.67.04-2.9-.93-.17-.72.36-1.62 1.14-1.9.87-.32 1.54-.11 2.04.86zM67.72 83.83c-.59.21-.76-.4-1.21-.37-.17.09-.37.2-.59.31-.23.55-.32 1.13.09 1.61.6.71 1.11.05 1.74-.26.04.56-.22.83-.63.9-.39.07-.81.08-1.2.02-.89-.14-1.17-.71-1.14-2.18.54-.73 1.32-1 2.23-.89.42.05.75.26.71.86zM57.03 70.53c.84.24 1.29.68 1.39 1.42-.87 1-1.52 1.21-2.07.69-.22-.21-.29-.47-.28-.77.01-.47.01-.47.96-1.34zM59.01 46.52c-1.09.26-1.76-.38-2.69-.89.69-.54 1.26-.99 1.95-1.53.04.74-.61.85-.65 1.31.45.39.85-.16 1.28-.08.4.31.3.68.11 1.19zM49.37 48.3c-.5-.8.52-1.3-.11-1.84.43-.26.65-.14.88.13.03.63-.29 1.13-.77 1.71zM51.17 49.35c-.79-.14-.78-.65-1-1.3.61.3.94.55 1 1.3z"/></g></svg>