<svg version="1.1" id="Layer_1" xmlns="http://www.w3.org/2000/svg" x="0" y="0" viewBox="0 0 100 100" xml:space="preserve"><style type="text/css">.st0{fill:#231f20}.st1{fill:#c93c27}</style><path class="st0" d="M19.4 59.5l2.3-8.1c.3-.9.8-1.8 1.8-1.6 1.3.3 1.3.8 1.3 1.3 0 .3-.1.7-.2 1.2l-3.8 12c-.9 2.4-1.9 3.8-4.3 3.8-1.7 0-2.3-.8-2.3-1.7s1.1-1.4 2.1-1.4h.4c.5 0 1.1-.3 1.3-1.3l-5.2-10.5c-.3-.8-.4-1.3-.4-1.7 0-1 .2-1.3 1.3-1.6.8-.3 1.7.5 1.9 1.3l3.8 8.3zM48.8 51.5c0-1.2.5-1.7 1.6-1.7 1 0 1.6.6 1.6 1.7v.6h.1c.6-1.6 1.9-2.3 3.6-2.3 2.8 0 5.3 2.3 5.3 7 0 3.5-1.7 6.8-5.3 6.8-1.6 0-2.8-.7-3.4-1.8h-.1v4.9c0 1.2-.7 1.8-1.8 1.8-1 0-1.7-.7-1.7-1.8l.1-15.2zm7.6.8c-2.1 0-2.8 2.1-2.8 4.4 0 2.1.7 4.6 2.8 4.5 2.3 0 2.8-2.7 2.8-4.5 0-2.4-.9-4.4-2.8-4.4zM41.5 47.1c0-1.3.7-1.8 1.7-1.8s1.7.7 1.7 1.8v15.3c0 1.3-.7 1.8-1.7 1.8s-1.7-.7-1.7-1.8V47.1zM29.7 57.8c0 2 1.1 3.4 2.9 3.4 2.4 0 2.4-1.8 3.7-1.8.8 0 1.3.8 1.3 1.5 0 2.2-3.1 3.3-5 3.3-4.5 0-6.2-3.6-6.2-6.8 0-4.4 2.3-7.3 6-7.3s5.8 3.1 5.8 6.2c0 1.3-.3 1.7-1.4 1.7l-7.1-.2zm5.2-2c-.2-1.9-1.3-3.3-2.9-3.3-1.8 0-2.8 1.3-3.1 3.3h6z"/><path class="st1" d="M87.3 38.3c-.2.3-.3.6-.5.8-.3.3-.5.4-.8.5-.3.2-.6.2-.9.2s-.7-.1-.9-.2c-.3-.2-.6-.3-.8-.5-.3-.3-.4-.5-.5-.8-.2-.3-.2-.6-.2-1 0-.3.1-.7.2-.9.2-.3.3-.6.5-.8.3-.3.5-.4.8-.5.3-.2.6-.2.9-.2s.7.1.9.2c.3.2.6.3.8.5.3.3.4.5.5.8.1.3.2.6.2.9 0 .4-.1.6-.2 1zm-.4-1.8c-.1-.2-.3-.5-.4-.7s-.4-.3-.7-.4c-.3-.1-.5-.2-.8-.2-.3 0-.6.1-.8.2-.3.1-.5.3-.7.4-.2.2-.3.4-.4.7-.1.3-.2.5-.2.8 0 .3.1.6.2.8.1.3.3.5.4.7.2.2.4.3.7.5.3.1.5.2.8.2.3 0 .6-.1.8-.2.3-.1.5-.3.7-.4.2-.2.3-.4.4-.7.1-.3.2-.5.2-.8 0-.4 0-.6-.2-.9zm-1.1 2.2c-.1-.1-.2-.3-.3-.7 0-.2-.1-.3-.2-.4-.1-.1-.3-.1-.4-.1h-.3v1.2h-.3v-2.8c.1 0 .3 0 .3-.1h.3c.2 0 .3 0 .5.1.2 0 .3.1.3.2.2.1.3.3.3.6 0 .2-.1.3-.2.4-.1.1-.3.2-.4.3.3.1.4.2.5.7 0 .3.1.3.1.5 0 .1.1.2.1.3l-.3-.2zm-.3-2.4c-.1-.1-.3-.2-.6-.2h-.4v1h.3c.2 0 .3 0 .5-.1s.3-.2.3-.4c.1 0 0-.1-.1-.3zM74.8 48.8c-.4.4-.1 1.3-.1 1.3l3.4 5.7s.6.8 1.1.8 1-.4 1-.4l2.7-3.8s.3-.5.3-.9c0-.6-.9-.8-.9-.8l-6.3-2c-.2-.2-.8-.4-1.2.1zM74.4 45.8c.3.6 1.3.4 1.3.4l6.3-1.8s.8-.3 1-.8c.1-.5-.2-1-.2-1l-3-3.6s-.3-.4-.8-.5-1 .7-1 .7l-3.6 5.7c.1-.1-.2.4 0 .9zM71.4 43.7c.8-.2.8-1.3.8-1.3v-9.1s-.1-1.1-.6-1.4c-.8-.5-1.1-.2-1.3-.2l-5.3 2s-.5.2-.8.6c-.4.6.4 1.5.4 1.5l5.5 7.5c.2 0 .7.5 1.3.4zM70.2 47.3c0-.7-.8-1.1-.8-1.1l-5.7-2.9s-.8-.3-1.3-.1c-.3.2-.6.5-.6.8l-.3 4.6s-.1.8.2 1.2c.3.5 1.3.2 1.3.2l6.7-1.5c0-.2.4-.2.5-1.2zM71.8 49.8c-.6-.3-1.3.3-1.3.3L66.1 55s-.6.8-.4 1.2c.2.4.3.7.7.8l4.5 1.4s.5.1.9 0c.6-.2.5-1.1.5-1.1l.1-6.6c-.1 0-.1-.6-.6-.9z"/></svg>