<svg version="1" xmlns="http://www.w3.org/2000/svg" width="1066.667" height="1066.667" viewBox="0 0 800.000000 800.000000"><path d="M396.8 97.5c-.2.1-6.1.5-13.3.9-7.1.3-14.1.8-15.5 1-1.4.3-5.2.7-8.5 1.1-3.3.3-11.6 1.7-18.5 3.1-89.3 17.8-169.1 78.7-209.9 160.1-10.1 20.2-20.9 52.1-24.6 72.8-2.7 15.4-3.5 20-4 25.1-.4 3.2-1.1 9.3-1.5 13.4-.8 7.6-.6 55.8.3 59.5.2 1.1.8 4.7 1.1 8 4.7 40.6 18.3 81.3 39.4 118 31.5 54.8 80 98 134.1 119.5 12.7 5 29 10.2 39.1 12.6 14.7 3.3 25.7 5.2 40.3 6.9 2.6.3 6.6.7 9 1 14 1.6 45.1 2.2 56.2 1.1 2.8-.3 7.5-.8 10.5-1.1 5.2-.5 7.4-.8 14.5-2 1.7-.3 4.6-.8 6.5-1.1 25.9-4.1 54.1-14 64.3-22.5 4.8-3.9 3.9-5.2-4.2-5.5-7.4-.3-12.8 1.1-31.2 8-14.3 5.4-16.3 5.8-46.4 10.1-16.4 2.4-47.4 2.4-61.5.1-1.4-.3-5-.7-8.1-1.1-3.1-.3-6.7-.8-8-1-2.3-.5-6.7-1.2-11.6-2-1.2-.2-3.4-.6-5-.9-1.5-.4-3.7-.8-4.8-1-20.2-3.9-49.5-14.7-68.5-25.1-9.7-5.3-28.6-17.7-34.7-22.7-2.2-1.8-6-4.9-8.4-6.8-7.8-6.2-29.3-28.2-37-38-22.2-27.9-38.7-58.1-49.2-90.2-4.2-12.6-6.7-21.2-7.3-24.7-.3-1.4-.9-4.2-1.4-6.1-.5-1.9-1.2-5.3-1.5-7.5-.3-2.2-1-6.3-1.5-9-.9-4.8-1.5-10.4-2.5-22.5-.6-6.3-.6-36.1 0-43.5.4-5.4 1.5-15.8 2.1-19 .1-1.1.6-3.8.9-6 .8-5.7 1.5-9.5 2.5-13.5.5-1.9 1.1-4.6 1.3-6 1.6-8.8 10.5-36.1 15.4-47 11.7-26 24.1-46.6 39.2-65.5 38.9-48.5 93.8-83.6 153.6-98 3.9-1 8.1-1.9 9.5-2.1 1.4-.3 5.9-1.1 10-1.9 4.1-.7 10.7-1.6 14.5-2 3.9-.3 8.8-.8 11-1.1 5-.5 34.6-.5 40 .1 2.2.2 6.7.7 10 1 11.2 1.1 28.5 4.1 38 6.6 2.2.6 4.7 1.3 5.5 1.4.8.2 5.2 1.5 9.6 2.9 34.9 10.6 65.7 26.8 94.6 49.8 12.2 9.8 32.6 29.9 42.1 41.8 28.7 35.7 47.5 78.8 52.2 120 .4 3 .8 6.8 1 8.5.6 4.2.6 31.4.1 34.5-.2 1.4-.7 5.6-1.1 9.5-2 22.3-10.3 54.9-20.3 79.5-10.2 25.2-28.7 52.8-48.2 71.9-11.6 11.3-28.5 22.1-38.5 24.6-1.6.4-3.9.9-5 1.2-5.3 1.2-15.3.5-19.6-1.4-9.8-4.4-13-11.9-12.5-28.5.5-13.1.7-14.7 4.7-28.9 7.8-28.1 19.6-56.4 41.6-100.4 9.7-19.4 20-39.2 21.3-41 .4-.6 3.3-6 6.5-12 3.2-6.1 6.7-12.6 7.8-14.5 15-26.5 19.6-47.6 13.7-63.3-2.3-6.2-7.5-12.1-12.6-14.2-4.3-1.8-13.4-2.1-19.6-.6-24.1 5.6-66.3 41.5-108.7 92.6-4.6 5.5-9.8 11.8-11.7 14-22.1 26.5-62.7 79.6-69.3 90.6-4.4 7.3-8.7 12-10.5 11.3-1.9-.7-3.4-5.2-3-8.4.2-1.4 3.5-8.8 7.4-16.5 4.7-9.4 9.7-22 15.4-38.5 4.6-13.5 10.7-31.2 13.5-39.4 7.8-22.4 10-32.6 9.6-45.4-.3-11.3-1.3-15.3-5.9-22.4-5.4-8.5-17.1-13.4-26.4-10.9-6.2 1.6-10.5 4.7-21.5 15.4-12.6 12.2-18.4 14.9-22.4 10.4-3.5-3.8-1.6-13.5 6.8-34.9 2.1-5.3 4.1-10.7 4.3-12 .3-1.3 1.4-6.5 2.6-11.6 4-17.9 3.3-32.9-2-43.7-9-18.6-26.2-27.1-48.5-24-36.3 5.1-96.4 51.5-144.4 111.5-32.3 40.3-41.2 66.9-29.8 88.3 4.5 8.5 13.1 14.2 23.5 15.7 4.7.6 5.8.4 7.9-1.5 2-1.6 2.5-3 2.5-6.1-.1-7.9-1.5-9.5-12.1-15.1-6.7-3.5-9-6.5-9.4-12.3-1.1-14.5 8.8-32.9 30.3-56.4 56.2-61.6 91.8-89.3 129.6-100.9 10.4-3.1 21.2-3.2 26.4-.1 5.7 3.3 8.4 9.3 8.6 19.4.3 9.9-.6 16-4.6 32.5-1.6 6.6-3.1 13.2-3.4 14.7-.2 1.5-.7 3.1-.9 3.5-.3.5-.8 2.5-1.1 4.7-.7 4.4-9.8 31.8-12.8 38.6-7.4 16.8-18.3 36.4-28.7 51.5-5.6 8.1-22 30.6-23.1 31.5-.3.3-3 3.6-6 7.5-3 3.8-5.7 7.2-6.1 7.5-2 1.7-27.7 36.6-34.8 47.5-7.5 11.3-25.3 44.5-24.9 46.4.1.3-.9 3.7-2.1 7.6-6.4 19.6-5.8 40.8 1.2 43.4 7.2 2.7 22.5-9.6 40-32.1 12.5-16.2 20.1-28.6 30.6-50.1 9.5-19.5 10.2-21.1 15.4-33.3 1.9-4.3 4.4-10.2 5.7-12.9 1.2-2.8 2.6-5.9 3-7 .5-1.1 5.1-10.8 10.3-21.5 21.1-43.5 34.7-60.7 72.1-91.3 11.9-9.7 20-12.4 24.7-8.1 3.5 3.2 5.4 10.3 5.3 19.9-.1 12.4-3.3 23.6-14.4 51-2.9 7.1-7.8 20.2-11 29-10.7 29.5-21.7 55-35.7 82.5-7.7 15.2-11.4 23.9-13.2 31.5-.2 1.1-.5 4.8-.5 8.3-.1 8 2.4 10.9 10 11.8 12.1 1.5 21.6-8.6 42.9-45.6 9.9-17.3 19.7-30.9 52.4-72.5 10.5-13.3 26.7-33.5 33.9-42 6.5-7.8 19-22.4 20.7-24.1 1.1-1.2 5.2-5.7 9-10 25.1-28.1 68.6-62.8 86.3-68.6 6.9-2.3 9.5-2.3 11.5 0 4 4.4 2.2 14.3-6.8 36.8-5.2 12.8-19.1 40.8-28 56.4-33.2 57.9-42.2 76.2-54.8 111-16.7 46.3-17.5 76.3-2.5 91.7 13.5 13.8 42.6 14.9 68 2.5 21-10.2 41.7-28.1 61.4-52.8 17.9-22.5 30.7-46.1 39.9-73.7 5.6-16.8 9.2-31.8 11.1-46.7.3-2.5.8-5.6 1.1-7 .9-4.6 1.1-49.4.2-56.5-2.5-19.9-4.4-29.7-8.5-43.7-8.7-30.5-20-53.5-40.3-81.8-4.2-5.8-8.5-11.6-9.6-12.9-19.4-23.4-37.2-40.7-56.9-55.4-5-3.8-9.8-7.4-10.6-8-2.2-1.8-18.3-11.7-26.9-16.7-23.6-13.6-64.5-28.6-89.1-32.6-1.4-.3-4.7-.9-7.5-1.4-2.7-.5-7.7-1.2-11-1.6-3.3-.4-6.9-.8-8-1-1.1-.2-7.6-.7-14.5-1-6.9-.3-14-.7-15.7-.8-1.8-.2-3.4-.2-3.5-.1zM279.1 454.2c-.5 1.3-2 4.5-3.4 7.3-1.3 2.7-3.5 7.2-4.7 10-9.6 21.2-22.4 44.2-28.6 51.2-3 3.5-3.3 3.6-2.8 1.3.2-1.4.6-3.6.9-5 2.1-11.5 10.2-26.6 23-43.2 3.3-4.2 8.2-11.3 10.8-15.7 4.8-8.1 6.5-10.2 4.8-5.9z"/></svg>