<svg version="1.1" xmlns="http://www.w3.org/2000/svg" x="0" y="0" width="100" height="100" viewBox="0 0 100 100" xml:space="preserve"><g fill="#13b5b2"><path d="M43.88 17.63C28.85 24.79 26.08 41.75 33.5 52.8c7.21 10.72 22.61 14.44 34.54 5.19-.67 1.73-5.12 4.59-9.22 6-3.69 1.27-7.53 1.52-11.29.91-12.95-2.08-20.69-12.71-20.77-24.19-.04-5.54 1.77-10.65 5.25-15.06 3.11-3.92 7.04-6.64 11.87-8.02z"/><path d="M60.79 58.77c12.05-6.84 13.02-20.05 8.44-28.08-2.97-5.2-7.4-8.53-13.26-9.9-5.84-1.36-11.17-.02-16.15 3.15 3.9-4.37 12.07-6.56 19.51-4.25 8.39 2.61 13.91 10.15 14.51 18.25.72 9.77-5.26 18.02-13.05 20.83zM11.33 71.06c.86-.06 1.18.45 1.44 1.09.45 1.14.94 2.27 1.48 3.55.6-.85.83-1.7 1.15-2.52.21-.55.41-1.1.63-1.65.11-.28.34-.4.64-.33.26.06.3.27.31.49.02.91.05 1.83.04 2.74-.01.82.05 1.61.5 2.33-1.08.18-1.11.18-1.12-.61-.02-1.17-.01-2.33-.25-3.52-.35.94-.71 1.89-1.06 2.83-.13.35-.26.7-.42 1.04-.06.13-.21.28-.34.31-.24.05-.38-.15-.46-.35-.37-.89-.72-1.78-1.09-2.67-.12-.29-.26-.58-.43-.95-.67 1.36-.5 2.67-.38 4.05H9.56c-.27-.19.06-.44.02-.68-.21-1.32-1.31-1.96-2.55-1.46-.28.11-.36.37-.49.6-.26.48-.24 1-.02 1.47-.43.18-.73.18-1.02-.03-.01-.11-.05-.23-.02-.3.77-1.53 1.34-3.15 1.84-4.79.09-.28.15-.52.47-.54.29-.02.55.12.66.37.38.88.74 1.78 1.11 2.67.28.69.54 1.4.84 2.08.08.18.26.36.51.32.23-.04.4-.19.45-.4.07-.31.11-.63.11-.95 0-1.41.17-2.83-.14-4.19zm-4.21 2.91c.56.17 1.09.21 1.67-.05-.28-.64-.53-1.2-.79-1.8-.63.55-.66 1.21-.88 1.85zM26.29 84.05c-.53-.06-1.07.38-1.04-.45.01-.25-.12-.52-.2-.77-.31-.9-1.7-1.37-2.48-.85-.45.3-.4.86-.59 1.28-.09.2-.02.49-.02.77h-4.97c0-1.74.12-3.45-.04-5.13-.11-1.07.45-.5.85-.63-.19 1.42-.1 2.75-.11 4.07-.01.47-.14 1.06.43 1.27.6.22 1.26.26 1.86-.1.32-.2.53-.52.66-.88.42.26.02.77.44.96.54-.21.47-.79.64-1.21.49-1.18.92-2.39 1.34-3.59.05-.16-.15-.42.15-.49.26-.06.57-.1.75.14.19.25.34.55.44.85.5 1.58 1.15 3.11 1.89 4.76zm-2.69-4.68c-.54.36-.49.85-.64 1.23-.26.68-.12.84.6.88.26.01.54.03.8-.24-.18-.62-.31-1.29-.76-1.87zM80.54 73.7c.42-.58 1.04-1.12 1-1.79-.06-1.09.59-.83 1.33-.85-.84.94-1.24 2.02-1.8 3.01-.38.68-.54 1.37-.35 2.16.15.65.1.66-.84.6.31-2.28.03-3.24-1.55-5.25-.52.15-.13.68-.42.94-.06-.03-.15-.05-.2-.11-.18-.26-.3-.59-.54-.78-.43-.35-1.03-.09-1.03.45 0 1.39-.21 2.8.11 4.17.23.97-.38.63-.78.68 0-1.48.01-2.95-.01-4.42 0-.35.14-.8-.35-.96-.43-.14-.7.15-.91.48-.06.09-.14.16-.2.23-.15-1.08-.15-1.09.74-1.13 1.12-.06 2.24.06 3.37-.1.53-.08 1.12.04 1.3.85.14.67.6 1.23 1.13 1.82zM58.69 81.58c.57.75 1.18 1.54 1.79 2.34-.43.31-.78.15-.98-.2-.52-.89-1.36-1.5-2.03-2.45-.24.76-.1 1.44-.14 2.09-.02.33-.01.68-.45.7-.26.01-.64.19-.57-.41.2-1.74.14-3.49 0-5.37.72 0 1.46-.03 2.2.01 1.01.05 1.62.45 1.74 1.11.16.83-.12 1.27-1.19 1.8-.14.07-.28.11-.37.38zm-1.36-2.01c-.03 1.09.08 1.29.74 1.3.82.01 1.51-.49 1.53-1.11.02-.55-.72-1.09-1.55-1.13-.72-.03-.73.46-.72.94zM57.75 76.99c-1.75-.03-3-1.41-2.96-3.27.03-1.54 1.43-2.97 2.87-2.84 1.92.18 2.89 1.33 2.94 3.31.03 1.26-1.23 3.01-2.85 2.8zm2.18-2.93c0-1.42-1.03-2.59-2.27-2.58-1.43.01-2.08.71-2.21 2.36-.11 1.34 1.22 2.72 2.45 2.66 1.16-.04 2.04-1.1 2.03-2.44zM85.13 73.89c-.17-1.55 1.45-3.06 2.72-3.03 2.06.05 3.02 1.55 3.09 3.22.06 1.55-1.28 2.89-2.82 2.91-1.67.03-3-1.34-2.99-3.1zm2.81-2.41c-1.39.04-2.2.96-2.15 2.42.05 1.35 1.18 2.59 2.36 2.61 1.2.02 2.17-1.13 2.13-2.52-.03-1.41-1.09-2.54-2.34-2.51zM23.99 71.16c.9 0 1.8-.01 2.7 0 .61.01 1.01.39 1.2.92.2.56-.05 1.03-.47 1.44-.36.34-.75.59-1.35.62.75.94 1.42 1.77 2.14 2.67-.51.26-.84.09-1.09-.28-.59-.9-1.35-1.63-2.25-2.47-.19 1.04-.11 1.91 0 2.89-.36-.14-.93.4-.85-.59.16-1.68.14-3.38-.03-5.2zm.77 1.47c.07.43-.22 1.1.67 1.12.95.02 1.78-.53 1.81-1.23.02-.56-.69-1.02-1.57-1.02-.83 0-.9.08-.91 1.13zM46.3 75.34c.06-1.36.16-2.59-.06-3.8-.06-.33.12-.36.34-.37.18-.01.32.1.28.28-.33 1.75.03 3.53-.23 5.52-1.52-1.45-2.25-3.31-3.7-4.81-.16 1.56-.18 2.96.01 4.37.04.25.06.41-.25.41-.24 0-.45-.09-.47-.33-.04-.43-.03-.86-.03-1.29v-3.55c0-.22.03-.45.25-.55.26-.12.53-.07.74.13.39.37.69.81 1.02 1.24.68.88 1.06 1.99 2.1 2.75zM79.73 79.27c-.1 1.53-.13 2.91.01 4.28.03.3.12.53-.29.52-.45-.02-.24-.32-.23-.56.08-1.7.09-3.41-.02-5.19 1.29-.02 1.55 1.14 2.13 1.88.59.75 1.08 1.59 1.75 2.58.16-1.6.14-2.98-.02-4.58.32.3 1-.45.82.72-.2 1.26-.06 2.57-.08 3.87-.01.41.1.85-.28 1.34-.95-.53-1.25-1.56-1.86-2.32-.63-.8-.98-1.8-1.93-2.54zM78.04 81.35c-.01 1.67-1.18 2.91-2.76 2.92-1.58 0-3.05-1.48-3.06-3.1-.01-1.6 1.32-3.07 2.82-3.13 1.59-.06 3.01 1.5 3 3.31zm-.65-.16c-.02-.15-.02-.48-.11-.79-.37-1.26-1.64-2.03-2.71-1.69-1.31.42-2 1.79-1.55 3.09.07.2.17.4.27.59.51 1 1.4 1.52 2.32 1.35.92-.17 1.77-1.32 1.78-2.55zM69.22 76.97c.12-1.98.14-3.83-.02-5.82 1.12 0 2.23-.01 3.35 0 .46.01.69.24.52.88-.75-.68-1.64-.56-2.51-.53-.76.03-.56.64-.59 1.08-.03.47.06.86.67.86.48 0 .96.05 1.38-.21.28.39.15.77.15 1.17-.32.17-.37-.24-.58-.29-1.29-.31-1.67-.02-1.61 1.3.03.88.04.88.93.93 1.55.09 1.63.06 2.42-.76.13 1.22.06 1.34-.95 1.37-1.07.05-2.14.02-3.16.02zM12.06 78.28c.74 0 1.48-.03 2.21.01.99.06 1.74.81 1.78 1.7.04 1.09-.55 1.73-1.74 1.86-.21.02-.43 0-.64 0-.41 0-.56.24-.57.6-.01.37 0 .75-.02 1.12-.02.55-.42.55-.8.49-.47-.07-.14-.38-.14-.6.03-1.69.12-3.38-.08-5.18zm1.03 1.69c.01 0 .01 0 0 0 .01.32 0 .65.01.97.01.22.11.41.33.5.42.18 1.44-.15 1.74-.6.33-.49.31-1.03.02-1.52-.28-.47-.84-.44-1.28-.61-.53-.2-.82.05-.82.61v.65zM66.01 79.72c-.2.03-.28.06-.29.04-.95-1.21-1.33-1.37-2.31-.97-1.21.5-1.73 1.49-1.5 2.84.18 1.04 1.08 2 1.97 2.08.93.09 1.58-.61 1.45-1.75-.07-.58.24-.48.53-.48.2 0 .44.05.33.37-.2.57-.05 1.17-.12 1.75-.02.14-.02.33-.27.28-.75-.17-1.41.32-2.18.25-.77-.07-1.32-.35-1.78-.92-.76-.95-.85-2.75-.19-3.79.64-1.02 2.01-1.42 3.35-1.19 1.04.18.75.91 1.01 1.49zM53.72 72.32c-.78-.82-1.73-1.09-2.44-.68-.32.19-.66.44-.62.87.03.34.3.57.59.72.23.12.51.18.77.19.38.03.73.13 1.08.29 1 .45 1.18.73 1.06 1.71-.1.82-.6 1.36-1.42 1.53-.21.04-.43.04-.64.04-1.38.01-1.93.07-2.03-1.72.44-.04.41.37.59.58.7.84 1.59.96 2.4.37.41-.29.46-.69.45-1.14-.01-.46-.27-.65-.69-.75-.57-.14-1.14-.29-1.69-.48-.58-.21-1.07-.55-1.15-1.22-.06-.55.53-1.24 1.21-1.52.67-.27 1.32-.38 2.03-.1.56.24.7.61.5 1.31zM18.89 71.15c.97 0 1.98-.01 2.99.01.39.01.39.04.83.73-.89-.36-1.46-.41-2.37-.4-.68.01-.78.38-.78.93 0 .88.05.96.81 1.04.21.02.43.01.64.01.51-.01.57.38.66.74-.12.18-.27.14-.41.07-.5-.26-1.1-.4-1.49-.01-.43.44-.18 1.11-.15 1.69.01.24.21.38.44.38.91-.02 1.87.3 2.68-.43.21.7.05 1.08-.71 1.08-1.06-.01-2.13 0-3.27 0 .24-1.96.12-3.8.13-5.84zM49.13 79.51c-.6-.62-1.22-1.14-2.09-.87-.45.14-.95.27-.99.89-.04.59.28.88.82 1.01.47.11.94.21 1.4.34.82.24 1.26.72 1.32 1.43.06.62-.53 1.5-1.23 1.72-.77.23-1.59.23-2.35 0-.65-.19-.67-.75-.51-1.42.26.3.44.58.69.79.58.5 1.63.47 2.23-.02.69-.57.58-1.45-.26-1.78-.54-.21-1.15-.26-1.7-.45-.79-.28-1.07-.7-1.07-1.42 0-.75.43-1.14 1.06-1.45.8-.4 1.57-.23 2.32.06.43.17.59.57.36 1.17zM30.39 79.62c-.6-.56-1.04-1.26-1.9-1.01-.52.15-1.09.23-1.16.91-.07.69.36.94.95 1.06.42.08.83.19 1.24.31.9.26 1.34.8 1.33 1.59-.01.56-.6 1.39-1.23 1.56-.61.16-1.23.26-1.89.1-.94-.23-.95-.19-.98-1.53.27.32.46.61.71.82.59.5 1.63.46 2.23-.05.64-.54.59-1.34-.15-1.7-.47-.23-1.02-.32-1.53-.46-1.02-.28-1.37-.67-1.36-1.5.02-.81.42-1.15 1.41-1.47.66-.21 1.26-.13 1.87.07.57.18.66.6.46 1.3zM85.08 82.56c.8 1.14 1.16 1.33 2.11 1.19.47-.07.8-.32 1.03-.69.38-.61.11-1.31-.59-1.53-.61-.19-1.27-.27-1.85-.52-1.12-.49-1.25-1.47-.34-2.29.71-.65 2.2-.83 3-.37.16.09.16.09.13 1.01-.96-.93-2-1.05-2.76-.33-.39.38-.37.72.01 1.1.49.5 1.17.5 1.77.68 1.13.34 1.43.64 1.43 1.6 0 1.04-.35 1.39-1.52 1.7-.54.14-1.03.14-1.55-.01-.89-.22-.94-.27-.87-1.54zM36.21 76.85c.56-1.83 1.56-3.48 1.95-5.35.07-.33.61-.46.87-.25.23.18.24.46.34.71.67 1.63 1.34 3.25 2.05 4.94-.61.07-1.09.36-1.05-.74.03-1.03-.6-1.42-1.51-1.44-1.29-.02-1.68.35-1.79 1.67-.05.52-.05.52-.86.46zm2.37-4.81c-.22.58-.42.99-.54 1.42-.11.37.09.61.47.62.3.01.63.1.91-.15-.11-.59-.23-1.2-.84-1.89zM51.34 78.4c-.18 1.21-.1 2.43-.09 3.65.01.72.21 1.42 1 1.66.99.31 1.82-.3 1.85-1.39.04-1.18.04-2.37-.08-3.54-.06-.56.19-.5.5-.5.33 0 .39.11.36.49-.09 1.12-.07 2.25-.1 3.38-.02.85-.21 1.61-1.13 1.92-1.09.37-2.11.06-2.73-.75-.24-.32-.32-.66-.34-1.05-.06-1.23.07-2.46-.09-3.7-.05-.42.51-.32.85-.17zM67.53 84.08c.21-1.08.14-2.04.13-3-.01-.9.14-1.8-.21-2.81 1.13 0 2.15-.02 3.16.01.64.02.64.06.94 1.27-.76-.72-1.47-1.03-2.35-.95-.59.06-.92.21-.88.84.01.21.01.43 0 .64-.03.55.24.74.77.77.45.02.81-.21 1.24-.26.13.34.21.67.1 1.07-.14-.07-.26-.15-.39-.21-1.35-.59-1.74-.35-1.72 1.09.01 1.17.01 1.18 1.15 1.19.58 0 1.19.13 1.69-.34.1-.09.28-.24.37 0 .07.2.07.44-.16.56-.13.07-.3.11-.45.12-1.12.02-2.24.01-3.39.01zM65.68 76.27c.06.33-.17.52-.41.58-2.43.63-4.43-.58-4.07-3.42.24-1.94 2.13-3.01 3.9-2.31.56.22.56.22.5 1.2-.36-.06-.46-.43-.73-.59-.85-.52-1.98-.28-2.55.53-.6.85-.62 2.33-.05 3.2.54.82 1.63 1.14 2.85.87.17-.05.35-.29.56-.06zM35.58 72.4c-.56-.53-1.08-1.03-1.92-.93-.58.07-1.01.3-1.35.75-.62.83-.67 2.3-.11 3.19.53.84 1.62 1.2 2.82.93.19-.04.36-.24.58-.1.16.25-.01.44-.18.51-1.16.45-2.33.47-3.31-.38-.97-.83-1.19-1.97-.92-3.2.27-1.24 1.17-1.87 2.27-2.25.51-.18 1.04.03 1.56.17.72.19.78.61.56 1.31zM93.11 76.88c-.69.1-1.19.19-1.17-.67.02-1.4.02-2.79 0-4.19-.01-.58.13-.92.79-.89.7.03 1.4 0 2.09.01.72.01.71.48.56 1.19-.31-.38-.38-.95-.96-.85-.42.08-.86.01-1.28.09-.21.04-.28.3-.28.53.01.48-.17 1.01.12 1.41.3.41.77.22 1.19.11.2-.06.31.05.31.23 0 .2.01.46-.33.36-.05-.01-.1-.04-.15-.05-1.11-.04-1.12-.04-1.14.96-.01.59-.09 1.17.25 1.76zM42.4 79.79c-.44-.53-.7-1.15-1.44-1.18-.96-.04-2.19.91-2.32 1.88-.15 1.07.07 2.05.97 2.75.85.66 1.77.69 2.71.15.09-.05.2-.06.31-.1.28.44-.1.6-.36.7-2.55.96-4.73-.85-4.3-3.54.26-1.6 2.07-2.66 3.65-2.22.86.24.98.72.78 1.56zM32.81 78.74c-.95-.11-1.18.45-1.47.95-.18-1.39-.18-1.4 1.03-1.42.59-.01 1.18-.01 1.77 0 1.21.02 1.21.02 1.18 1.4-.39-.12-.43-.55-.7-.76-.56-.43-1.07-.25-1.09.48-.04 1.49-.13 2.99.07 4.49-.83.21-.8.21-.77-.58.03-1.53.03-3.06-.02-4.56zM36.98 81.29v2.23c0 .3-.11.52-.44.53-.32.01-.47-.19-.47-.5 0-1.17-.01-2.34-.01-3.51 0-.43 0-.85.01-1.28.01-.32.18-.48.51-.45.24.02.38.17.38.41.01.87.01 1.72.02 2.57zM67.81 76.95c-.57-.02-1.08.24-.91-.76.26-1.51.18-3.07.02-4.6-.03-.25-.01-.41.28-.41.24 0 .43.11.45.35.03.42.02.85.03 1.27.04 1.32-.1 2.65.13 4.15zM29.18 76.85c.19-1.41.07-2.83.1-4.25.01-.37-.01-.75.04-1.11.03-.23.23-.34.47-.31.31.03.25.22.23.45-.13 1.53-.16 3.07.01 4.61.07.65.09.65-.85.61z"/></g></svg>