<svg version="1.1" xmlns="http://www.w3.org/2000/svg" x="0" y="0" width="100" height="100" viewBox="0 0 100 100" xml:space="preserve"><g fill="#13b5b2"><path d="M24.19 83.36c.69-.51 1.4-.99 2.36-.64.26.37.57.75.59 1.42.02.26-.41.26-.58.49.47.39.84.84.95 1.49-.06.48-.33.87-.66 1.27-.94-.03-1.96.34-2.82-.66-.78.93-1.83.69-2.8.67-.46-.12-.64-.64-1.24-.67-.74 1.03-1.88.65-2.8.69-.55-.23-.71-.62-.98-1.1-.11.42-.17.65-.23.9-.49.33-1.02.23-1.55.1-.3-.52-.27-1.19-.86-1.62-.05.52-.09 1-.15 1.58-1.62.3-3.24.12-4.85.1-.51-.76-.01-1.63-.41-2.43l-.7 2.35c-.56.18-1.03.23-1.51-.24-.18-.66-.34-1.43-.6-2.16-.25-.7-.52-1.36-.2-2.09 1.06-.03 1.11.03 1.48 1.86.67-.46.5-1.28.75-1.97h4.02c.36.41.3.81.12 1.22-.45.4-1.09 0-1.6.36.53.4 1.47-.06 1.66.95-.1.91-.98.6-1.8.92.84.29 1.55-.03 2.25.58v-3.82c.55-.42 1.05-.24 1.59-.24.26.41.53.85.81 1.31.33-.41-.01-.94.43-1.28 1.03-.28 1.13.55 1.38 1.26.35-.42.56-.93 1.06-1.19.46-.24.95-.12 1.49-.12.34.29.71.61 1.06.91.36-.01.3-.34.44-.5.31-.37.67-.55 1.12-.35.35.16.57.46.57.87.01.89.06 1.78-.19 2.66.38.01.54-.13.54-.42.01-.67.03-1.35.02-2.02-.01-.55.16-.99.72-1.12.56-.15.92.15 1.12.68-.57.61-.57 1.23 0 1.84-.06.88.59.71 1.11.74.13.3.3.46.61.19-.16-.23-.39-.17-.61-.19-.23-.46-.74-.49-1.11-.74v-1.84zm-6.77 2.06c.62.04.29.83 1.06.79.27-.68.31-1.36-.05-2.07-.63.17-.62.67-1.01 1.28zm8.35-1.15l.1.07.01-.11-.11.04zM76.49 67.05H23.91V12.79s.05-.05.1-.08c.05-.04.09-.09.15-.1.31-.03.61-.05.92-.05h51.14c.13.13.18.17.22.22.03.05.07.1.07.16.02 17.7.03 35.39.05 53.09-.01.29-.05.59-.07 1.02zm-.39-54.06c-.43-.03-.73-.06-1.03-.06-16.84.01-33.67.03-50.51.04-.05 0-.11.04-.16.07-.05.04-.09.09-.13.13-.15 2.08-.22 42.39-.09 52.33 0 .31.03.61.05.92 0 .05.06.1.1.15.04.05.08.09.08.1h51.68c.01-17.89.01-35.69.01-53.68zM64.75 77.09c.69-.29.13-1.05.71-1.58.73-.43 1.49-1.37 2.77-.92 1.18.81 1.87 1.88 1.66 3.56 1.23-1.08.42-3.04 2.06-3.7.71.33 1.17.72 1.32 1.59.21 1.18.65 2.31 1 3.46.07.24.09.47-.06.72-.29.28-.66.17-.99.14-.47-.16-.24-.68-.56-.94-.44-.14-.94-.3-1.23.25-.3.56-.71.79-1.33.74-.37-.03-.49-.3-.71-.65-.75.83-1.73.73-2.67.62-1.14-.14-1.5-1.07-1.79-2.09-.14.83-.19 1.65-1.39 2.07h-3.06c-.23-1.84-.12-3.64-.09-5.38 1.9-.87 2.86-.67 4.39.92-.03.34-.03.76-.03 1.19-.3.13-.46.3-.19.61.23-.16.17-.4.19-.61zm2.77 2.11c.88-.91.88-.91.91-1.68.01-.3 0-.61-.13-.73-.57-.59-1.07-.49-1.6-.29-.16 1.02-.34 1.99.82 2.7zm-4.36-.87c-.5-.17-.89-.22-1.24.07-.13.3-.15.57.11.8.76.3.88-.29 1.13-.87zm-1.2-2.26c-.14.36-.04.53.12.59.22.07.47.1.71-.15-.26-.14-.52-.27-.83-.44zm9.97 1.65l.07-.1-.11-.01.04.11zm-2.19 1.32l-.07.1.11.01-.04-.11zM89.46 86.31c-.06.23-.06.49-.18.69-.31.5-.83.41-1.32.42-1.22.03-1.22.03-2-.62-.8.86-1.84.6-2.74.6-.56-.17-.66-.66-.97-.96-.11.29-.21.57-.31.82-.36.23-.72.16-1.12.07-.06-.14-.18-.3-.18-.46-.03-.8-.02-1.59-.02-2.39 0-.31 0-.62-.37-.75-.02-.56.2-.98.77-1.07.68-.11.98.37 1.18 1.04.8-.67 1.47-1.5 2.92-.78.07.06.43.38.79.69.38-.23.12-.75.58-.95.62-.15 1.23.46 2.03.03.68-.36.96 0 1.48 1.31.33-.45.2-1.13.66-1.26h4.13c.35.26.2.69.15 1.1-.43.5-1.07.07-1.7.47.47.11.82.19 1.18.27.31.37.26.77.08 1.17-.32.38-.87.01-1.19.38.44.42 1.09-.04 1.49.31.24.26.18.5.11.83-1.47.31-2.98.09-4.23.12-.82-.18-.73-.91-1.22-1.08-.02-.21.03-.45-.26-.66-.1.32-.09.54.26.66zm-5.83-.05c1.11.05 1.54-1.03 2.41-.87.1-.39.11-.61-.15-.84-.88 1.04-1.27-.88-2.22-.29-.2.56-.11 1.2-.04 2zM59.66 87.02c-.45.44-.69.37-1.02.31-.37-.95-.02-2.02-.22-2.93-.35-.47-.93-.14-1.15-.59-.26.17-.22.34-.17.52.26.96.74 1.89.57 2.87-.86.53-1.17-.29-1.83-.52-.77.89-1.86.81-2.93.69-.58-.29-.14-.96-.49-1.27-.26-.19-.49-.16-.73-.07-.38.32-.1.83-.32 1.16-.29.27-.57.26-.93.01v-4.32c.2-.27.49-.28.81-.15.43.43.06 1.06.23 1.36.3.44.56.32.77.34.63-.44.05-1.22.57-1.74.69-.17 1.15.12 1.21.88.05.72.01 1.45.24 2.19.24-.95.48-1.9.73-2.9 1.16-.5 2.35.04 3.51-.19 1.11-.23 2.3-.05 3.66-.05v4.51c-.49.38-.86.28-1.31.21-.39-.95-.02-2.02-.23-2.96-.29-.33-.56-.31-.97-.08v2.72zM39.77 78.39c.46.52.87 1.05.53 1.8-.3.33-.68.16-.99.2-.65-.44-.61-1.2-.96-1.75-.48.48-.48.48-.58 1.51-.35.37-.76.28-1.29.13-.21-1.77-.1-3.58-.08-5.36 1.81-.95 3.04-.15 4.2.98.32-.57.65-1.07 1.21-1.36.61.11.83.5.83 1.05v4.63c-.69.28-1.23.33-1.73-.31-.31-.83.08-1.78-.24-2.71-.33.42-.61.8-.9 1.19zm-.95-1.85c-.33-.25-.58-.23-.83-.02.21.26.45.24.83.02zM46.17 87.34h-4.28v-3.83c-.77 1.18-1.73 2.21-1.49 3.58-.45.47-.86.28-1.43.26.37-1.71-.86-2.97-1.21-4.43 1.44-.81 1.37.74 2.08 1.06.28-.45.56-.89.82-1.32h2.74c.53.35.13 1 .56 1.36.89-.04.22-.97.79-1.31.36-.16.84-.1 1.3 0 .35.33.4 2.1.12 4.63zM80.24 83.72v2.53c-.19.54-.57.84-.95 1.09h-5.96v-4.53c.81-.37 1.72-.15 2.57-.16.4.4.32.81.18 1.23-.45.42-1.08.05-1.65.37.56.42 1.5-.05 1.69 1.06-.04.88-1.09.43-1.7.84.69.25 1.29.16 1.93.09.51-1.02-.05-2.17.32-3.14.64-.75 1.42-.39 2.14-.47.47.36.95.73 1.43 1.09zm-2 2.56c1.22-1.31 1.2-1.58-.14-2.08-.06.7-.21 1.37.14 2.08zM29.58 74.59c.37-.15.9-.14 1.52.08v5.5c-.29.37-.71.24-1.13.17-.5-.43-.07-1.07-.38-1.56-.08.05-.21.1-.21.15-.04.55 0 1.13-.64 1.42-1.12-.02-.68-1.08-1.06-1.69-.33.71.03 1.97-1.48 1.67-.35-.9-.13-1.88-.17-2.83-.04-.91-.01-1.83-.01-2.73.65-.4 1.23-.32 1.7-.15.65.43.46 1.06.58 1.65.23-.15.4-.22.5-.34.29-.32.08-.87.78-1.34zM53.84 74.5c.3.85 1.14 1.26 1.47 2.1.38-.4.15-.85.23-1.24.12-.56.44-.88 1.02-.82.48.05.77.38.79.86.03.74.02 1.47.02 2.21v2.54c-1.34.26-1.61.16-2.18-.75-.31-.49-.33-1.18-1.11-1.49v2.14c-.47.45-.87.37-1.28.24-.06-.11-.17-.21-.18-.32-.02-1.41-.03-2.82-.05-4.24 0-.69.23-1.17 1.27-1.23zM72.82 87.26c-1.48.41-2.79-.17-4.08.12-.34-.18-.66-.4-.64-.82.07-1.3-.4-2.68.55-3.85.49-.13.96-.16 1.43.02.4.46.05 1.08.32 1.58.55-.4.52-1.06.81-1.57.47-.2.94-.14 1.53-.01.25 1.46.11 2.96.08 4.53zM10.87 74.69c.03.64.05 1.18.08 1.71.34.45.77.31 1.22.24.52-.58-.19-1.67.9-2.08.57.02.82.54 1.15.98v4.17c-.35.75-.92.78-1.59.62-.49-.56-.03-1.31-.36-1.93-.36-.29-.76-.25-1.26-.01-.05.55-.09 1.15-.14 1.74-.33.44-.77.22-1.27.24-.28-1.73-.17-3.43-.09-5.12.02-.6.56-.89 1.36-.56zM86.15 78.46v-1.79c.48-.73.97-1.4 1.71-1.88.59-.38 1.07-.34 1.69-.02 1.62.84 1.96 2.19 1.69 3.9-.33.49-.71 1.04-1.1 1.62-1.69.34-3.17.21-3.99-1.83zm2.53.49c.75-.76.76-.76.77-1.57 0-.3.07-.62-.17-.88-.4-.2-.79-.23-1.25.11.04.76-.42 1.66.65 2.34zM79.55 80.34V75.1c.62-.91 1.48-.48 2.24-.59.62.66 1.63.84 2.13 1.85 0 .48.03 1.09-.01 1.7-.08 1.43-.86 2.24-2.26 2.35-.36.03-.73.01-1.1 0-.28-.01-.57-.04-1-.07zm2.51-3.89c-.48-.07-.72-.14-1.04.17-.02.68-.2 1.48.21 2.37 1.25-.65.72-1.61.83-2.54zM79.17 76.37c-.2.84-.55 1.4-.98 1.91.01.67.75 1.14.51 1.87-.35.42-.78.18-1.15.22-.4-.59-.34-1.35-1.02-1.76-.65.39-.1 1.16-.5 1.61-.39.29-.79.16-1.17.09-.34-2.72-.25-4.55.27-5.68 1.77-.47 3.04.22 4.04 1.74zm-2.82.14c.26.3.51.3.77 0-.26-.21-.51-.21-.77 0zM16.09 76.45c.66.44 1.55.06 1.77 1 0 1.06-1.28.47-1.84 1.14.79.65 1.72.09 2.46.49.25.37.24.76-.02 1.25H14.8c-.38-.82-.15-1.73-.18-2.62-.04-.91-.01-1.81-.01-2.67 1.14-.93 2.33-.36 3.34-.52.79.38.78.96.62 1.67-.72.33-1.54.05-2.48.26zM35.54 80.34h-3.35c-.44-1.73-.36-4.54.18-5.71.98-.22 2-.11 3-.07.42.55.19 1.08.21 1.54-.65.51-1.4.01-2 .41.29.42.82.05 1.17.41.24.27.1.64.1.95-.3.59-1.12.06-1.42.78.6.58 1.44.04 2.04.46.24.31.14.67.07 1.23zM25.79 79.95c-.49.54-.86.45-1.26.42-.47-.26-.51-1.13-1.25-1.05-.73 0-.81.69-1.18 1.04-.37.04-.74.15-1.05-.11-.2-.28-.26-.65-.12-.87.78-1.24.96-2.69 1.43-4.03.22-.62.56-.91 1.38-.77 1.27 1.56 1.01 3.77 2.05 5.37zm-2.51-2.39l-.07.1.11.01-.04-.11zM47.42 79.67c-.35.24-.7.47-1.05.71h-2.01c-1.45-.98-1.62-2.38-1.24-3.89.29-1.13 1.51-1.87 3.01-1.94.46.58 1.45.87 1.2 1.98-.84.5-1.35-.4-2.13-.4-.52.93-.65 1.84.1 2.7.8.2 1.05-1.05 2.03-.4.25.26.03.77.09 1.24z"/><path d="M47.42 79.67c.47-.26.65-.76.69-1.2.09-.93.59-1.71.75-2.59.13-.68.55-1.04 1.11-1.36.74.33 1.09.84 1.17 1.67.06.64.51 1.23.61 1.87.11.7.74 1.32.3 2.17-.29.28-.7.2-1.1.08-.34-.24-.13-.74-.56-.97h-.8c-.42.21-.29.67-.44.91-.56.24-1.03.19-1.48.09-.27-.17-.22-.44-.25-.67zm2.41-2.11l-.07.1.11.01-.04-.11zM7.96 80.28c-.73.13-1.2.22-1.78-.07v-3.37c-.33-.56-.8-.43-1-.58-.28-.59-.15-1.06-.1-1.64h3.8c.31.49.17.98.14 1.43-.2.41-.72.19-1.06.69v3.54zM93.21 78.82c-.16.51.07 1.03-.24 1.45-.36.21-.71.16-1.06.06-.42-1.81-.34-4.54.2-5.7.86-.2 1.75-.12 2.63-.07.42.54.19 1.07.21 1.53-.53.46-1.15.11-1.78.45.77.29 1.18.72 1.09 1.51-.08.63-.68.4-1.05.77zM29.88 87.36c-.52-1.46.44-2.56.22-3.74.49-.31.86-.63 1.34-.62 1.4.29 1.03 1.87 2.02 2.46-.49.61-.23 1.18-.08 1.84-1.2.19-2.33.13-3.5.06zm1.05-1.25l.1.07.01-.11-.11.04zM66.15 84.69c-1.03.29-1.23-.53-1.8-.55-.9.91-.9.91-.15 2.13.63-.11 1.1-1.26 1.95-.46.23.85-.42 1.16-.95 1.58h-1.61c-.43-.22-.72-.53-1.01-.96V84c.13-.47.77-.76.86-1.36h1.81c.63.58 1.06 1.22.9 2.05zM46.8 82.67h2.19c.4.15.71.52.99.97 0 .63.18 1.3-.17 1.92-.36.58-1.05.22-1.45.51-.35.37-.03.9-.39 1.21-.35.19-.7.16-1.17 0v-4.61zm1.92 1.63c-.26-.3-.51-.3-.76 0 .26.21.51.21.76 0zM35.28 87.34V83.3c.25-.51.63-.81 1.18-.62.53.18.68.66.63 1.19-.06.77.17 1.56-.25 2.26.55.36 1.19-.06 1.62.39.1.24.12.47-.11.82-.91.14-1.91.1-3.07 0zM73.55 32.7c0 10.34 0 20.6-.01 30.85 0 .15-.2.3-.37.53H27.01c-.39-.38-.22-.9-.22-1.37-.02-1.9.04-3.81-.02-5.71-.04-1.14.17-2.17.74-3.15.4-.68.73-1.39 1.12-2.13h3.89c1.27.86 1.52 2.52 2.26 3.91h1.01c-1.69-3.88-3.18-7.81-4.93-11.76-1.61 2.55-2.21 5.34-3.73 8.14-.5-1.26-.3-2.16-.34-3.03-.03-.86-.01-1.72-.01-2.58v-2.76-2.76-2.58-2.49c.31-.6.66-.74 1-.86 2.79-.99 5.53-2.14 8.42-2.79 1.43-.33 2.7-1.02 4.14-1.32 2.89-.59 5.72-1.49 8.62-1.96 1.41-.23 2.92-.3 4.32-.54 2.39-.4 4.75-.17 7.12-.29 2.26-.11 4.51.15 6.66.78 2.43.7 4.84 1.59 6.49 3.87zm-5.18 22.91c.53-1.44.54-10.16.17-11.69-.57.08-1.2-.24-1.78.4-.83 3.07-1.41 6.31-2.68 9.82-1.29-3.59-1.71-7.01-2.93-10.19-.49-.03-.98-.18-1.57.21v10.58c0 .24.05.48.09.72.01.05.07.11.12.14.05.02.12.01.35.01.38-.73.12-1.58.16-2.39.05-.92.01-1.84.01-2.76v-2.58-2.84c.78.41 1.07 1.04 1.05 1.59-.02.77.28 1.44.46 2.13.59 2.32 1.3 4.61 1.95 6.88.68-.01.88-.35.95-.82.47-2.99 1.82-5.74 2.29-8.74.06-.36.13-1.03 1.04-.95v3.44c0 1.23-.02 2.46.01 3.68.04 1.12-.1 2.26.31 3.36zM36.85 43.9c-.27 3.2-.18 10.39.14 11.8 1.07 0 2.17-.01 3.26 0 .38 0 .7-.1 1.04-.27 1.81-.88 2.29-3.58.92-5.14-.32-.36-.91-.4-1-.72-.17-.82.38-1.06.61-1.47 1.08-1.92-.1-4.07-2.33-4.2-.83-.04-1.69 0-2.64 0zm9.78 9.95c-1.01-3.61-1.89-6.76-2.76-9.88-.33-.06-.57-.08-.79.16.34 1.8.83 3.59 1.44 5.34.64 1.82 1.08 3.69 1.48 5.58.08.35.37.64.8.59.46-.19.64-.6.76-1 .99-3.41 1.95-6.82 2.92-10.23.03-.11.09-.22.11-.34 0-.03-.09-.08-.13-.12-.24-.05-.48-.08-.65.11-.5 1.57-.85 3.15-1.44 4.67-.61 1.53-.76 3.23-1.74 5.12zm5.99-9.86c-.51 1.46-.51 10.2-.14 11.7h5.31c.32 0 .62-.04.58-.59-1.74-.4-3.59.12-5.42-.3v-3.77c0-1.17.03-2.34-.01-3.5-.04-1.18.18-2.39-.32-3.54z"/><path d="M73.97 15.57v9.02c0 .23-.05.47-.07.65-.72.53-1.29-.02-1.77-.21-2.08-.8-4.2-1.17-6.42-1.04-.86.05-1.73.08-2.58-.01-1.49-.16-2.91.3-4.34.48-1.49.19-2.97.52-4.47.62-.51.04-.93.31-1.4.35-2.48.23-4.84 1-7.25 1.52-4.25.92-8.4 2.2-12.56 3.41-2.07.6-4.17 1.18-6.14 1.99-.42-.22-.54-.54-.54-.94V15.84c.13-.13.17-.18.22-.21.05-.03.11-.07.16-.07 15.36-.02 30.72-.03 46.08-.05.27 0 .57.03 1.08.06zM31.02 46.8c.19 1.31 1.18 2.2 1.26 3.46.01.17-.08.34-.15.57h-2.98c-.45-.87.23-1.49.58-2.11.35-.6.17-1.52 1.29-1.92zM37.69 54.75c-.47-1.28-.14-2.68-.21-4.05-.02-.42.27-.66.67-.89.76.07 1.53.56 2.33.36.58.4 1.01.83 1.38 1.37v1.61c-1.49 1.86-1.82 1.99-4.17 1.6zM40.43 48.57c-.96.07-1.86 1.04-2.89.03v-3.51c1.18-.07 2.34-.4 3.22.65.59.7.51 1.18-.33 2.83z"/></g></svg>